  0
SECTION
  2
HEADER
  9
$ACADVER
  1
AC1009
  9
$EXTMIN
  10
 0.000000
  20
 0.000000
  30
 0.000000
  9
$EXTMAX
  10
 480.000000
  20
 480.000000
  30
 0.000000
  0
ENDSEC
  0
SECTION
  2
TABLES
  0
TABLE
  2
LAYER
  70
     2048
  0
LAYER
  2
0
  70
    0
  62
     7
  6
CONTINUOUS
  0
LAYER
   2
C7
  70
     64
  62
7
  6
CONTINUOUS
  0
LAYER
   2
C18
  70
     64
  62
18
  6
CONTINUOUS
  0
ENDTAB
  0
ENDSEC
  0
SECTION
  2
ENTITIES
  0
POLYLINE
  8
C7
  66
1
  10
0.000000
  20
480.000000
  0
VERTEX
  8
C7
  10
0.000000
  20
480.000000
  0
SEQEND
  8
C7
  0
POLYLINE
  8
C7
  66
1
  10
0.000000
  20
480.000000
  0
VERTEX
  8
C7
  10
0.000000
  20
480.000000
  0
VERTEX
  8
C7
  10
0.000000
  20
0.000000
  0
VERTEX
  8
C7
  10
480.000000
  20
0.000000
  0
VERTEX
  8
C7
  10
480.000000
  20
480.000000
  0
VERTEX
  8
C7
  10
0.000000
  20
480.000000
  0
SEQEND
  8
C7
  0
POLYLINE
  8
C7
  66
1
  10
147.000000
  20
409.000000
  0
VERTEX
  8
C7
  10
147.000000
  20
409.000000
  0
VERTEX
  8
C7
  10
147.566900
  20
408.214200
  0
VERTEX
  8
C7
  10
148.200400
  20
407.476000
  0
VERTEX
  8
C7
  10
148.893100
  20
406.781000
  0
VERTEX
  8
C7
  10
149.637900
  20
406.124400
  0
VERTEX
  8
C7
  10
150.427600
  20
405.501600
  0
VERTEX
  8
C7
  10
151.254800
  20
404.908200
  0
VERTEX
  8
C7
  10
152.112300
  20
404.339400
  0
VERTEX
  8
C7
  10
152.992900
  20
403.790700
  0
VERTEX
  8
C7
  10
153.889300
  20
403.257400
  0
VERTEX
  8
C7
  10
154.794400
  20
402.735100
  0
VERTEX
  8
C7
  10
155.700800
  20
402.219000
  0
VERTEX
  8
C7
  10
156.601300
  20
401.704600
  0
VERTEX
  8
C7
  10
157.488800
  20
401.187200
  0
VERTEX
  8
C7
  10
158.355800
  20
400.662400
  0
VERTEX
  8
C7
  10
159.195300
  20
400.125400
  0
VERTEX
  8
C7
  10
160.000000
  20
399.571700
  0
VERTEX
  8
C7
  10
160.819600
  20
398.975500
  0
VERTEX
  8
C7
  10
161.633600
  20
398.368200
  0
VERTEX
  8
C7
  10
162.441700
  20
397.749900
  0
VERTEX
  8
C7
  10
163.243600
  20
397.120900
  0
VERTEX
  8
C7
  10
164.038900
  20
396.481200
  0
VERTEX
  8
C7
  10
164.827300
  20
395.831000
  0
VERTEX
  8
C7
  10
165.608600
  20
395.170400
  0
VERTEX
  8
C7
  10
166.382400
  20
394.499600
  0
VERTEX
  8
C7
  10
167.148300
  20
393.818600
  0
VERTEX
  8
C7
  10
167.906200
  20
393.127800
  0
VERTEX
  8
C7
  10
168.655700
  20
392.427100
  0
VERTEX
  8
C7
  10
169.396400
  20
391.716800
  0
VERTEX
  8
C7
  10
170.128200
  20
390.996900
  0
VERTEX
  8
C7
  10
170.850500
  20
390.267700
  0
VERTEX
  8
C7
  10
171.563300
  20
389.529300
  0
VERTEX
  8
C7
  10
172.266000
  20
388.781700
  0
VERTEX
  8
C7
  10
172.958500
  20
388.025200
  0
VERTEX
  8
C7
  10
173.640500
  20
387.260000
  0
VERTEX
  8
C7
  10
174.311500
  20
386.486000
  0
VERTEX
  8
C7
  10
174.971300
  20
385.703600
  0
VERTEX
  8
C7
  10
175.619700
  20
384.912700
  0
VERTEX
  8
C7
  10
176.256200
  20
384.113700
  0
VERTEX
  8
C7
  10
176.880600
  20
383.306500
  0
VERTEX
  8
C7
  10
177.492500
  20
382.491400
  0
VERTEX
  8
C7
  10
178.091700
  20
381.668600
  0
VERTEX
  8
C7
  10
178.677900
  20
380.838000
  0
VERTEX
  8
C7
  10
179.250700
  20
380.000000
  0
VERTEX
  8
C7
  10
179.777200
  20
379.201300
  0
VERTEX
  8
C7
  10
180.287200
  20
378.396400
  0
VERTEX
  8
C7
  10
180.780700
  20
377.585400
  0
VERTEX
  8
C7
  10
181.257900
  20
376.768300
  0
VERTEX
  8
C7
  10
181.718900
  20
375.945500
  0
VERTEX
  8
C7
  10
182.163900
  20
375.116900
  0
VERTEX
  8
C7
  10
182.592900
  20
374.282800
  0
VERTEX
  8
C7
  10
183.006100
  20
373.443200
  0
VERTEX
  8
C7
  10
183.403600
  20
372.598400
  0
VERTEX
  8
C7
  10
183.785500
  20
371.748400
  0
VERTEX
  8
C7
  10
184.152000
  20
370.893400
  0
VERTEX
  8
C7
  10
184.503100
  20
370.033600
  0
VERTEX
  8
C7
  10
184.839100
  20
369.169000
  0
VERTEX
  8
C7
  10
185.160000
  20
368.299800
  0
VERTEX
  8
C7
  10
185.465900
  20
367.426200
  0
VERTEX
  8
C7
  10
185.757100
  20
366.548300
  0
VERTEX
  8
C7
  10
186.033500
  20
365.666200
  0
VERTEX
  8
C7
  10
186.295400
  20
364.780100
  0
VERTEX
  8
C7
  10
186.542800
  20
363.890100
  0
VERTEX
  8
C7
  10
186.775900
  20
362.996400
  0
VERTEX
  8
C7
  10
186.994800
  20
362.099000
  0
VERTEX
  8
C7
  10
187.199600
  20
361.198200
  0
VERTEX
  8
C7
  10
187.390500
  20
360.294100
  0
VERTEX
  8
C7
  10
187.567500
  20
359.386700
  0
VERTEX
  8
C7
  10
187.730900
  20
358.476300
  0
VERTEX
  8
C7
  10
187.880700
  20
357.563100
  0
VERTEX
  8
C7
  10
188.017000
  20
356.647000
  0
VERTEX
  8
C7
  10
188.140000
  20
355.728300
  0
VERTEX
  8
C7
  10
188.249800
  20
354.807100
  0
VERTEX
  8
C7
  10
188.346600
  20
353.883600
  0
VERTEX
  8
C7
  10
188.430300
  20
352.957900
  0
VERTEX
  8
C7
  10
188.501300
  20
352.030100
  0
VERTEX
  8
C7
  10
188.559600
  20
351.100300
  0
VERTEX
  8
C7
  10
188.605300
  20
350.168800
  0
VERTEX
  8
C7
  10
188.638500
  20
349.235600
  0
VERTEX
  8
C7
  10
188.659400
  20
348.300900
  0
VERTEX
  8
C7
  10
188.668200
  20
347.364900
  0
VERTEX
  8
C7
  10
188.664800
  20
346.427600
  0
VERTEX
  8
C7
  10
188.649500
  20
345.489200
  0
VERTEX
  8
C7
  10
188.622400
  20
344.549900
  0
VERTEX
  8
C7
  10
188.583500
  20
343.609700
  0
VERTEX
  8
C7
  10
188.533100
  20
342.668900
  0
VERTEX
  8
C7
  10
188.471300
  20
341.727500
  0
VERTEX
  8
C7
  10
188.398100
  20
340.785800
  0
VERTEX
  8
C7
  10
188.313700
  20
339.843800
  0
VERTEX
  8
C7
  10
188.218200
  20
338.901700
  0
VERTEX
  8
C7
  10
188.111800
  20
337.959600
  0
VERTEX
  8
C7
  10
187.994600
  20
337.017700
  0
VERTEX
  8
C7
  10
187.866600
  20
336.076100
  0
VERTEX
  8
C7
  10
187.728100
  20
335.134900
  0
VERTEX
  8
C7
  10
187.579100
  20
334.194300
  0
VERTEX
  8
C7
  10
187.419800
  20
333.254500
  0
VERTEX
  8
C7
  10
187.250300
  20
332.315500
  0
VERTEX
  8
C7
  10
187.070700
  20
331.377500
  0
VERTEX
  8
C7
  10
186.881200
  20
330.440600
  0
VERTEX
  8
C7
  10
186.681800
  20
329.505100
  0
VERTEX
  8
C7
  10
186.472700
  20
328.570900
  0
VERTEX
  8
C7
  10
186.254100
  20
327.638400
  0
VERTEX
  8
C7
  10
186.026000
  20
326.707500
  0
VERTEX
  8
C7
  10
185.788500
  20
325.778500
  0
VERTEX
  8
C7
  10
185.541900
  20
324.851400
  0
VERTEX
  8
C7
  10
185.286200
  20
323.926500
  0
VERTEX
  8
C7
  10
185.021500
  20
323.003800
  0
VERTEX
  8
C7
  10
184.748000
  20
322.083600
  0
VERTEX
  8
C7
  10
184.465800
  20
321.165900
  0
VERTEX
  8
C7
  10
184.175000
  20
320.250800
  0
VERTEX
  8
C7
  10
183.875700
  20
319.338600
  0
VERTEX
  8
C7
  10
183.568200
  20
318.429400
  0
VERTEX
  8
C7
  10
183.252400
  20
317.523200
  0
VERTEX
  8
C7
  10
182.928500
  20
316.620300
  0
VERTEX
  8
C7
  10
182.596700
  20
315.720800
  0
VERTEX
  8
C7
  10
182.257000
  20
314.824800
  0
VERTEX
  8
C7
  10
181.909600
  20
313.932400
  0
VERTEX
  8
C7
  10
181.554700
  20
313.043900
  0
VERTEX
  8
C7
  10
181.192300
  20
312.159300
  0
VERTEX
  8
C7
  10
180.822500
  20
311.278700
  0
VERTEX
  8
C7
  10
180.445600
  20
310.402400
  0
VERTEX
  8
C7
  10
180.061600
  20
309.530500
  0
VERTEX
  8
C7
  10
179.670600
  20
308.663000
  0
VERTEX
  8
C7
  10
179.272800
  20
307.800200
  0
VERTEX
  8
C7
  10
178.868200
  20
306.942200
  0
VERTEX
  8
C7
  10
178.457100
  20
306.089000
  0
VERTEX
  8
C7
  10
178.039500
  20
305.241000
  0
VERTEX
  8
C7
  10
177.615600
  20
304.398100
  0
VERTEX
  8
C7
  10
177.185500
  20
303.560600
  0
VERTEX
  8
C7
  10
176.749300
  20
302.728500
  0
VERTEX
  8
C7
  10
176.307100
  20
301.902100
  0
VERTEX
  8
C7
  10
175.859100
  20
301.081400
  0
VERTEX
  8
C7
  10
175.405400
  20
300.266600
  0
VERTEX
  8
C7
  10
174.946100
  20
299.457900
  0
VERTEX
  8
C7
  10
174.481300
  20
298.655300
  0
VERTEX
  8
C7
  10
174.011300
  20
297.859000
  0
VERTEX
  8
C7
  10
173.535900
  20
297.069200
  0
VERTEX
  8
C7
  10
173.055600
  20
296.286000
  0
VERTEX
  8
C7
  10
172.570200
  20
295.509500
  0
VERTEX
  8
C7
  10
172.080000
  20
294.739900
  0
VERTEX
  8
C7
  10
171.585100
  20
293.977400
  0
VERTEX
  8
C7
  10
171.085600
  20
293.221900
  0
VERTEX
  8
C7
  10
170.581600
  20
292.473800
  0
VERTEX
  8
C7
  10
170.073400
  20
291.733100
  0
VERTEX
  8
C7
  10
169.560900
  20
291.000000
  0
VERTEX
  8
C7
  10
168.973400
  20
290.194400
  0
VERTEX
  8
C7
  10
168.360700
  20
289.404700
  0
VERTEX
  8
C7
  10
167.724700
  20
288.629400
  0
VERTEX
  8
C7
  10
167.067400
  20
287.867700
  0
VERTEX
  8
C7
  10
166.390800
  20
287.118100
  0
VERTEX
  8
C7
  10
165.696900
  20
286.379800
  0
VERTEX
  8
C7
  10
164.987700
  20
285.651300
  0
VERTEX
  8
C7
  10
164.265000
  20
284.931700
  0
VERTEX
  8
C7
  10
163.531000
  20
284.219800
  0
VERTEX
  8
C7
  10
162.787600
  20
283.514400
  0
VERTEX
  8
C7
  10
162.036800
  20
282.814300
  0
VERTEX
  8
C7
  10
161.280600
  20
282.118400
  0
VERTEX
  8
C7
  10
160.520900
  20
281.425600
  0
VERTEX
  8
C7
  10
159.759700
  20
280.734700
  0
VERTEX
  8
C7
  10
158.999100
  20
280.044600
  0
VERTEX
  8
C7
  10
158.240900
  20
279.354100
  0
VERTEX
  8
C7
  10
157.487300
  20
278.662000
  0
VERTEX
  8
C7
  10
156.740100
  20
277.967200
  0
VERTEX
  8
C7
  10
156.001400
  20
277.268600
  0
VERTEX
  8
C7
  10
155.273000
  20
276.564900
  0
VERTEX
  8
C7
  10
154.557100
  20
275.855100
  0
VERTEX
  8
C7
  10
153.855700
  20
275.138000
  0
VERTEX
  8
C7
  10
153.170500
  20
274.412500
  0
VERTEX
  8
C7
  10
152.503800
  20
273.677300
  0
VERTEX
  8
C7
  10
151.857400
  20
272.931400
  0
VERTEX
  8
C7
  10
151.233300
  20
272.173500
  0
VERTEX
  8
C7
  10
150.633500
  20
271.402600
  0
VERTEX
  8
C7
  10
150.060100
  20
270.617500
  0
VERTEX
  8
C7
  10
149.514900
  20
269.817000
  0
VERTEX
  8
C7
  10
149.000000
  20
269.000000
  0
VERTEX
  8
C7
  10
149.806300
  20
268.670400
  0
VERTEX
  8
C7
  10
150.591200
  20
268.315300
  0
VERTEX
  8
C7
  10
151.354800
  20
267.935200
  0
VERTEX
  8
C7
  10
152.097400
  20
267.530500
  0
VERTEX
  8
C7
  10
152.819300
  20
267.101900
  0
VERTEX
  8
C7
  10
153.520800
  20
266.649800
  0
VERTEX
  8
C7
  10
154.202000
  20
266.174700
  0
VERTEX
  8
C7
  10
154.863400
  20
265.677100
  0
VERTEX
  8
C7
  10
155.505100
  20
265.157500
  0
VERTEX
  8
C7
  10
156.127500
  20
264.616500
  0
VERTEX
  8
C7
  10
156.730700
  20
264.054500
  0
VERTEX
  8
C7
  10
157.315100
  20
263.472000
  0
VERTEX
  8
C7
  10
157.881000
  20
262.869600
  0
VERTEX
  8
C7
  10
158.428500
  20
262.247800
  0
VERTEX
  8
C7
  10
158.958000
  20
261.607100
  0
VERTEX
  8
C7
  10
159.469700
  20
260.947900
  0
VERTEX
  8
C7
  10
159.964000
  20
260.270800
  0
VERTEX
  8
C7
  10
160.441000
  20
259.576300
  0
VERTEX
  8
C7
  10
160.901000
  20
258.864900
  0
VERTEX
  8
C7
  10
161.344300
  20
258.137100
  0
VERTEX
  8
C7
  10
161.771200
  20
257.393500
  0
VERTEX
  8
C7
  10
162.182000
  20
256.634500
  0
VERTEX
  8
C7
  10
162.576800
  20
255.860600
  0
VERTEX
  8
C7
  10
162.956000
  20
255.072300
  0
VERTEX
  8
C7
  10
163.319900
  20
254.270200
  0
VERTEX
  8
C7
  10
163.668700
  20
253.454800
  0
VERTEX
  8
C7
  10
164.002600
  20
252.626500
  0
VERTEX
  8
C7
  10
164.322000
  20
251.785900
  0
VERTEX
  8
C7
  10
164.627100
  20
250.933500
  0
VERTEX
  8
C7
  10
164.918200
  20
250.069700
  0
VERTEX
  8
C7
  10
165.195500
  20
249.195200
  0
VERTEX
  8
C7
  10
165.459300
  20
248.310400
  0
VERTEX
  8
C7
  10
165.710000
  20
247.415700
  0
VERTEX
  8
C7
  10
165.947600
  20
246.511800
  0
VERTEX
  8
C7
  10
166.172600
  20
245.599100
  0
VERTEX
  8
C7
  10
166.385200
  20
244.678200
  0
VERTEX
  8
C7
  10
166.585600
  20
243.749500
  0
VERTEX
  8
C7
  10
166.774200
  20
242.813500
  0
VERTEX
  8
C7
  10
166.951100
  20
241.870800
  0
VERTEX
  8
C7
  10
167.116700
  20
240.921900
  0
VERTEX
  8
C7
  10
167.271300
  20
239.967300
  0
VERTEX
  8
C7
  10
167.415000
  20
239.007400
  0
VERTEX
  8
C7
  10
167.548200
  20
238.042800
  0
VERTEX
  8
C7
  10
167.671100
  20
237.074000
  0
VERTEX
  8
C7
  10
167.784000
  20
236.101500
  0
VERTEX
  8
C7
  10
167.887100
  20
235.125800
  0
VERTEX
  8
C7
  10
167.980800
  20
234.147500
  0
VERTEX
  8
C7
  10
168.065300
  20
233.167000
  0
VERTEX
  8
C7
  10
168.140900
  20
232.184800
  0
VERTEX
  8
C7
  10
168.207800
  20
231.201400
  0
VERTEX
  8
C7
  10
168.266300
  20
230.217400
  0
VERTEX
  8
C7
  10
168.316600
  20
229.233300
  0
VERTEX
  8
C7
  10
168.359100
  20
228.249500
  0
VERTEX
  8
C7
  10
168.394000
  20
227.266600
  0
VERTEX
  8
C7
  10
168.421600
  20
226.285100
  0
VERTEX
  8
C7
  10
168.442100
  20
225.305400
  0
VERTEX
  8
C7
  10
168.455800
  20
224.328200
  0
VERTEX
  8
C7
  10
168.463100
  20
223.353900
  0
VERTEX
  8
C7
  10
168.464000
  20
222.383000
  0
VERTEX
  8
C7
  10
168.459000
  20
221.416000
  0
VERTEX
  8
C7
  10
168.448200
  20
220.453400
  0
VERTEX
  8
C7
  10
168.432000
  20
219.495800
  0
VERTEX
  8
C7
  10
168.410600
  20
218.543600
  0
VERTEX
  8
C7
  10
168.384300
  20
217.597300
  0
VERTEX
  8
C7
  10
168.353300
  20
216.657500
  0
VERTEX
  8
C7
  10
168.317900
  20
215.724700
  0
VERTEX
  8
C7
  10
168.278500
  20
214.799400
  0
VERTEX
  8
C7
  10
168.235200
  20
213.882000
  0
VERTEX
  8
C7
  10
168.188300
  20
212.973100
  0
VERTEX
  8
C7
  10
168.138100
  20
212.073200
  0
VERTEX
  8
C7
  10
168.084800
  20
211.182900
  0
VERTEX
  8
C7
  10
168.028800
  20
210.302500
  0
VERTEX
  8
C7
  10
167.970200
  20
209.432700
  0
VERTEX
  8
C7
  10
167.909500
  20
208.573900
  0
VERTEX
  8
C7
  10
167.846700
  20
207.726600
  0
VERTEX
  8
C7
  10
167.782300
  20
206.891300
  0
VERTEX
  8
C7
  10
167.716400
  20
206.068700
  0
VERTEX
  8
C7
  10
167.649300
  20
205.259000
  0
VERTEX
  8
C7
  10
167.581400
  20
204.463000
  0
VERTEX
  8
C7
  10
167.512800
  20
203.681000
  0
VERTEX
  8
C7
  10
167.443800
  20
202.913600
  0
VERTEX
  8
C7
  10
167.374700
  20
202.161300
  0
VERTEX
  8
C7
  10
167.305900
  20
201.424600
  0
VERTEX
  8
C7
  10
167.237400
  20
200.703900
  0
VERTEX
  8
C7
  10
167.169700
  20
200.000000
  0
VERTEX
  8
C7
  10
167.085900
  20
199.141700
  0
VERTEX
  8
C7
  10
167.000600
  20
198.280600
  0
VERTEX
  8
C7
  10
166.913600
  20
197.416800
  0
VERTEX
  8
C7
  10
166.825000
  20
196.550400
  0
VERTEX
  8
C7
  10
166.734700
  20
195.681300
  0
VERTEX
  8
C7
  10
166.642700
  20
194.809700
  0
VERTEX
  8
C7
  10
166.548900
  20
193.935600
  0
VERTEX
  8
C7
  10
166.453400
  20
193.059100
  0
VERTEX
  8
C7
  10
166.356100
  20
192.180100
  0
VERTEX
  8
C7
  10
166.256900
  20
191.298800
  0
VERTEX
  8
C7
  10
166.155900
  20
190.415200
  0
VERTEX
  8
C7
  10
166.053000
  20
189.529400
  0
VERTEX
  8
C7
  10
165.948300
  20
188.641500
  0
VERTEX
  8
C7
  10
165.841600
  20
187.751400
  0
VERTEX
  8
C7
  10
165.733000
  20
186.859200
  0
VERTEX
  8
C7
  10
165.622300
  20
185.965100
  0
VERTEX
  8
C7
  10
165.509700
  20
185.069000
  0
VERTEX
  8
C7
  10
165.395100
  20
184.170900
  0
VERTEX
  8
C7
  10
165.278400
  20
183.271100
  0
VERTEX
  8
C7
  10
165.159600
  20
182.369500
  0
VERTEX
  8
C7
  10
165.038700
  20
181.466100
  0
VERTEX
  8
C7
  10
164.915700
  20
180.561000
  0
VERTEX
  8
C7
  10
164.790500
  20
179.654400
  0
VERTEX
  8
C7
  10
164.663100
  20
178.746100
  0
VERTEX
  8
C7
  10
164.533500
  20
177.836400
  0
VERTEX
  8
C7
  10
164.401700
  20
176.925200
  0
VERTEX
  8
C7
  10
164.267600
  20
176.012600
  0
VERTEX
  8
C7
  10
164.131200
  20
175.098600
  0
VERTEX
  8
C7
  10
163.992500
  20
174.183400
  0
VERTEX
  8
C7
  10
163.851500
  20
173.266900
  0
VERTEX
  8
C7
  10
163.708100
  20
172.349200
  0
VERTEX
  8
C7
  10
163.562200
  20
171.430400
  0
VERTEX
  8
C7
  10
163.414000
  20
170.510600
  0
VERTEX
  8
C7
  10
163.263300
  20
169.589700
  0
VERTEX
  8
C7
  10
163.110200
  20
168.667800
  0
VERTEX
  8
C7
  10
162.954500
  20
167.745100
  0
VERTEX
  8
C7
  10
162.796300
  20
166.821500
  0
VERTEX
  8
C7
  10
162.635600
  20
165.897100
  0
VERTEX
  8
C7
  10
162.472200
  20
164.972000
  0
VERTEX
  8
C7
  10
162.306300
  20
164.046100
  0
VERTEX
  8
C7
  10
162.137700
  20
163.119700
  0
VERTEX
  8
C7
  10
161.966500
  20
162.192600
  0
VERTEX
  8
C7
  10
161.792600
  20
161.265100
  0
VERTEX
  8
C7
  10
161.616000
  20
160.337000
  0
VERTEX
  8
C7
  10
161.436600
  20
159.408600
  0
VERTEX
  8
C7
  10
161.254500
  20
158.479800
  0
VERTEX
  8
C7
  10
161.069600
  20
157.550700
  0
VERTEX
  8
C7
  10
160.881800
  20
156.621400
  0
VERTEX
  8
C7
  10
160.691300
  20
155.691800
  0
VERTEX
  8
C7
  10
160.497800
  20
154.762100
  0
VERTEX
  8
C7
  10
160.301500
  20
153.832400
  0
VERTEX
  8
C7
  10
160.102200
  20
152.902600
  0
VERTEX
  8
C7
  10
159.900000
  20
151.972800
  0
VERTEX
  8
C7
  10
159.694800
  20
151.043200
  0
VERTEX
  8
C7
  10
159.486600
  20
150.113600
  0
VERTEX
  8
C7
  10
159.275400
  20
149.184300
  0
VERTEX
  8
C7
  10
159.061200
  20
148.255200
  0
VERTEX
  8
C7
  10
158.843800
  20
147.326400
  0
VERTEX
  8
C7
  10
158.623400
  20
146.398000
  0
VERTEX
  8
C7
  10
158.399800
  20
145.470000
  0
VERTEX
  8
C7
  10
158.173100
  20
144.542400
  0
VERTEX
  8
C7
  10
157.943100
  20
143.615400
  0
VERTEX
  8
C7
  10
157.710000
  20
142.688900
  0
VERTEX
  8
C7
  10
157.473600
  20
141.763100
  0
VERTEX
  8
C7
  10
157.234000
  20
140.838000
  0
VERTEX
  8
C7
  10
156.991100
  20
139.913600
  0
VERTEX
  8
C7
  10
156.744900
  20
138.990000
  0
VERTEX
  8
C7
  10
156.495300
  20
138.067300
  0
VERTEX
  8
C7
  10
156.242300
  20
137.145400
  0
VERTEX
  8
C7
  10
155.986000
  20
136.224600
  0
VERTEX
  8
C7
  10
155.726200
  20
135.304700
  0
VERTEX
  8
C7
  10
155.463000
  20
134.386000
  0
VERTEX
  8
C7
  10
155.196300
  20
133.468300
  0
VERTEX
  8
C7
  10
154.926200
  20
132.551900
  0
VERTEX
  8
C7
  10
154.652500
  20
131.636600
  0
VERTEX
  8
C7
  10
154.375200
  20
130.722700
  0
VERTEX
  8
C7
  10
154.094400
  20
129.810100
  0
VERTEX
  8
C7
  10
153.809900
  20
128.898900
  0
VERTEX
  8
C7
  10
153.521900
  20
127.989200
  0
VERTEX
  8
C7
  10
153.230100
  20
127.081000
  0
VERTEX
  8
C7
  10
152.934700
  20
126.174400
  0
VERTEX
  8
C7
  10
152.635600
  20
125.269300
  0
VERTEX
  8
C7
  10
152.332800
  20
124.366000
  0
VERTEX
  8
C7
  10
152.026100
  20
123.464400
  0
VERTEX
  8
C7
  10
151.715700
  20
122.564600
  0
VERTEX
  8
C7
  10
151.401500
  20
121.666600
  0
VERTEX
  8
C7
  10
151.083500
  20
120.770500
  0
VERTEX
  8
C7
  10
150.761600
  20
119.876400
  0
VERTEX
  8
C7
  10
150.435700
  20
118.984300
  0
VERTEX
  8
C7
  10
150.106000
  20
118.094200
  0
VERTEX
  8
C7
  10
149.772300
  20
117.206300
  0
VERTEX
  8
C7
  10
149.434700
  20
116.320500
  0
VERTEX
  8
C7
  10
149.093000
  20
115.437000
  0
VERTEX
  8
C7
  10
148.747400
  20
114.555700
  0
VERTEX
  8
C7
  10
148.397600
  20
113.676800
  0
VERTEX
  8
C7
  10
148.043800
  20
112.800300
  0
VERTEX
  8
C7
  10
147.685900
  20
111.926200
  0
VERTEX
  8
C7
  10
147.323900
  20
111.054700
  0
VERTEX
  8
C7
  10
146.957700
  20
110.185600
  0
VERTEX
  8
C7
  10
146.587300
  20
109.319200
  0
VERTEX
  8
C7
  10
146.212800
  20
108.455500
  0
VERTEX
  8
C7
  10
145.834000
  20
107.594500
  0
VERTEX
  8
C7
  10
145.450900
  20
106.736300
  0
VERTEX
  8
C7
  10
145.063500
  20
105.880900
  0
VERTEX
  8
C7
  10
144.671900
  20
105.028400
  0
VERTEX
  8
C7
  10
144.275900
  20
104.178800
  0
VERTEX
  8
C7
  10
143.875500
  20
103.332200
  0
VERTEX
  8
C7
  10
143.470700
  20
102.488700
  0
VERTEX
  8
C7
  10
143.061500
  20
101.648300
  0
VERTEX
  8
C7
  10
142.647900
  20
100.811100
  0
VERTEX
  8
C7
  10
142.229800
  20
99.977000
  0
VERTEX
  8
C7
  10
141.807200
  20
99.146300
  0
VERTEX
  8
C7
  10
141.380100
  20
98.318900
  0
VERTEX
  8
C7
  10
140.948400
  20
97.494800
  0
VERTEX
  8
C7
  10
140.512200
  20
96.674200
  0
VERTEX
  8
C7
  10
140.071400
  20
95.857100
  0
VERTEX
  8
C7
  10
139.625900
  20
95.043600
  0
VERTEX
  8
C7
  10
139.175800
  20
94.233600
  0
VERTEX
  8
C7
  10
138.721000
  20
93.427300
  0
VERTEX
  8
C7
  10
138.261500
  20
92.624700
  0
VERTEX
  8
C7
  10
137.797200
  20
91.825900
  0
VERTEX
  8
C7
  10
137.328200
  20
91.030900
  0
VERTEX
  8
C7
  10
136.854400
  20
90.239800
  0
VERTEX
  8
C7
  10
136.375800
  20
89.452600
  0
VERTEX
  8
C7
  10
135.892400
  20
88.669400
  0
VERTEX
  8
C7
  10
135.404100
  20
87.890200
  0
VERTEX
  8
C7
  10
134.910900
  20
87.115200
  0
VERTEX
  8
C7
  10
134.412800
  20
86.344300
  0
VERTEX
  8
C7
  10
133.909800
  20
85.577600
  0
VERTEX
  8
C7
  10
133.401800
  20
84.815200
  0
VERTEX
  8
C7
  10
132.888700
  20
84.057000
  0
VERTEX
  8
C7
  10
132.370700
  20
83.303300
  0
VERTEX
  8
C7
  10
131.847600
  20
82.554000
  0
VERTEX
  8
C7
  10
131.319500
  20
81.809200
  0
VERTEX
  8
C7
  10
130.786200
  20
81.068900
  0
VERTEX
  8
C7
  10
130.247800
  20
80.333200
  0
VERTEX
  8
C7
  10
129.704300
  20
79.602100
  0
VERTEX
  8
C7
  10
129.155600
  20
78.875800
  0
VERTEX
  8
C7
  10
128.601700
  20
78.154200
  0
VERTEX
  8
C7
  10
128.042500
  20
77.437400
  0
VERTEX
  8
C7
  10
127.478100
  20
76.725500
  0
VERTEX
  8
C7
  10
126.908400
  20
76.018500
  0
VERTEX
  8
C7
  10
126.333400
  20
75.316500
  0
VERTEX
  8
C7
  10
125.753100
  20
74.619500
  0
VERTEX
  8
C7
  10
125.167400
  20
73.927700
  0
VERTEX
  8
C7
  10
124.576300
  20
73.240900
  0
VERTEX
  8
C7
  10
123.979800
  20
72.559400
  0
VERTEX
  8
C7
  10
123.377900
  20
71.883100
  0
VERTEX
  8
C7
  10
122.770500
  20
71.212100
  0
VERTEX
  8
C7
  10
122.157600
  20
70.546500
  0
VERTEX
  8
C7
  10
121.539100
  20
69.886300
  0
VERTEX
  8
C7
  10
120.915200
  20
69.231600
  0
VERTEX
  8
C7
  10
120.285600
  20
68.582400
  0
VERTEX
  8
C7
  10
119.650500
  20
67.938700
  0
VERTEX
  8
C7
  10
119.009700
  20
67.300800
  0
VERTEX
  8
C7
  10
118.363300
  20
66.668500
  0
VERTEX
  8
C7
  10
117.711200
  20
66.041900
  0
VERTEX
  8
C7
  10
117.053400
  20
65.421200
  0
VERTEX
  8
C7
  10
116.389900
  20
64.806300
  0
VERTEX
  8
C7
  10
115.720600
  20
64.197400
  0
VERTEX
  8
C7
  10
115.045500
  20
63.594400
  0
VERTEX
  8
C7
  10
114.364700
  20
62.997400
  0
VERTEX
  8
C7
  10
113.677900
  20
62.406500
  0
VERTEX
  8
C7
  10
112.985400
  20
61.821800
  0
VERTEX
  8
C7
  10
112.286900
  20
61.243200
  0
VERTEX
  8
C7
  10
111.582500
  20
60.670900
  0
VERTEX
  8
C7
  10
110.872200
  20
60.104800
  0
VERTEX
  8
C7
  10
110.155900
  20
59.545100
  0
VERTEX
  8
C7
  10
109.433700
  20
58.991900
  0
VERTEX
  8
C7
  10
108.705400
  20
58.445100
  0
VERTEX
  8
C7
  10
107.971000
  20
57.904800
  0
VERTEX
  8
C7
  10
107.230600
  20
57.371100
  0
VERTEX
  8
C7
  10
106.484100
  20
56.844000
  0
VERTEX
  8
C7
  10
105.731500
  20
56.323600
  0
VERTEX
  8
C7
  10
104.972700
  20
55.809900
  0
VERTEX
  8
C7
  10
104.207800
  20
55.303100
  0
VERTEX
  8
C7
  10
103.436600
  20
54.803000
  0
VERTEX
  8
C7
  10
102.659200
  20
54.309900
  0
VERTEX
  8
C7
  10
101.875600
  20
53.823700
  0
VERTEX
  8
C7
  10
101.085700
  20
53.344600
  0
VERTEX
  8
C7
  10
100.289500
  20
52.872500
  0
VERTEX
  8
C7
  10
99.486900
  20
52.407600
  0
VERTEX
  8
C7
  10
98.678000
  20
51.949800
  0
VERTEX
  8
C7
  10
97.862700
  20
51.499200
  0
VERTEX
  8
C7
  10
97.040900
  20
51.056000
  0
VERTEX
  8
C7
  10
96.212800
  20
50.620100
  0
VERTEX
  8
C7
  10
95.378200
  20
50.191600
  0
VERTEX
  8
C7
  10
94.537100
  20
49.770500
  0
VERTEX
  8
C7
  10
93.689400
  20
49.356900
  0
VERTEX
  8
C7
  10
92.835200
  20
48.950900
  0
VERTEX
  8
C7
  10
91.974500
  20
48.552600
  0
VERTEX
  8
C7
  10
91.107200
  20
48.161900
  0
VERTEX
  8
C7
  10
90.233200
  20
47.778900
  0
VERTEX
  8
C7
  10
89.352600
  20
47.403700
  0
VERTEX
  8
C7
  10
88.465300
  20
47.036400
  0
VERTEX
  8
C7
  10
87.571300
  20
46.676900
  0
VERTEX
  8
C7
  10
86.670600
  20
46.325400
  0
VERTEX
  8
C7
  10
85.763100
  20
45.981900
  0
VERTEX
  8
C7
  10
84.848900
  20
45.646400
  0
VERTEX
  8
C7
  10
83.927800
  20
45.319100
  0
VERTEX
  8
C7
  10
83.000000
  20
45.000000
  0
VERTEX
  8
C7
  10
83.000000
  20
44.000000
  0
VERTEX
  8
C7
  10
189.000000
  20
43.000000
  0
VERTEX
  8
C7
  10
200.919754
  20
114.000000
  0
VERTEX
  8
C7
  10
229.246918
  20
279.000000
  0
VERTEX
  8
C7
  10
241.000000
  20
350.000000
  0
VERTEX
  8
C7
  10
360.000000
  20
351.000000
  0
VERTEX
  8
C7
  10
359.489100
  20
351.829300
  0
VERTEX
  8
C7
  10
359.009200
  20
352.664700
  0
VERTEX
  8
C7
  10
358.559900
  20
353.505900
  0
VERTEX
  8
C7
  10
358.140900
  20
354.352500
  0
VERTEX
  8
C7
  10
357.751900
  20
355.204200
  0
VERTEX
  8
C7
  10
357.392400
  20
356.060600
  0
VERTEX
  8
C7
  10
357.062200
  20
356.921400
  0
VERTEX
  8
C7
  10
356.760800
  20
357.786200
  0
VERTEX
  8
C7
  10
356.487900
  20
358.654700
  0
VERTEX
  8
C7
  10
356.243100
  20
359.526500
  0
VERTEX
  8
C7
  10
356.026100
  20
360.401300
  0
VERTEX
  8
C7
  10
355.836600
  20
361.278700
  0
VERTEX
  8
C7
  10
355.674100
  20
362.158400
  0
VERTEX
  8
C7
  10
355.538400
  20
363.040100
  0
VERTEX
  8
C7
  10
355.429000
  20
363.923300
  0
VERTEX
  8
C7
  10
355.345600
  20
364.807700
  0
VERTEX
  8
C7
  10
355.287800
  20
365.693100
  0
VERTEX
  8
C7
  10
355.255400
  20
366.579000
  0
VERTEX
  8
C7
  10
355.247900
  20
367.465100
  0
VERTEX
  8
C7
  10
355.264900
  20
368.351100
  0
VERTEX
  8
C7
  10
355.306200
  20
369.236500
  0
VERTEX
  8
C7
  10
355.371300
  20
370.121100
  0
VERTEX
  8
C7
  10
355.459900
  20
371.004500
  0
VERTEX
  8
C7
  10
355.571700
  20
371.886400
  0
VERTEX
  8
C7
  10
355.706300
  20
372.766400
  0
VERTEX
  8
C7
  10
355.863300
  20
373.644100
  0
VERTEX
  8
C7
  10
356.042300
  20
374.519200
  0
VERTEX
  8
C7
  10
356.243100
  20
375.391500
  0
VERTEX
  8
C7
  10
356.465300
  20
376.260400
  0
VERTEX
  8
C7
  10
356.708400
  20
377.125700
  0
VERTEX
  8
C7
  10
356.972200
  20
377.987000
  0
VERTEX
  8
C7
  10
357.256300
  20
378.844000
  0
VERTEX
  8
C7
  10
357.560400
  20
379.696400
  0
VERTEX
  8
C7
  10
357.884000
  20
380.543700
  0
VERTEX
  8
C7
  10
358.226800
  20
381.385600
  0
VERTEX
  8
C7
  10
358.588500
  20
382.221800
  0
VERTEX
  8
C7
  10
358.968700
  20
383.052000
  0
VERTEX
  8
C7
  10
359.367000
  20
383.875700
  0
VERTEX
  8
C7
  10
359.783200
  20
384.692700
  0
VERTEX
  8
C7
  10
360.216700
  20
385.502500
  0
VERTEX
  8
C7
  10
360.667400
  20
386.305000
  0
VERTEX
  8
C7
  10
361.134800
  20
387.099600
  0
VERTEX
  8
C7
  10
361.618500
  20
387.886000
  0
VERTEX
  8
C7
  10
362.118200
  20
388.664000
  0
VERTEX
  8
C7
  10
362.633600
  20
389.433100
  0
VERTEX
  8
C7
  10
363.164300
  20
390.193000
  0
VERTEX
  8
C7
  10
363.709900
  20
390.943300
  0
VERTEX
  8
C7
  10
364.270200
  20
391.683800
  0
VERTEX
  8
C7
  10
364.844600
  20
392.414000
  0
VERTEX
  8
C7
  10
365.432900
  20
393.133700
  0
VERTEX
  8
C7
  10
366.034700
  20
393.842400
  0
VERTEX
  8
C7
  10
366.649600
  20
394.539800
  0
VERTEX
  8
C7
  10
367.277400
  20
395.225600
  0
VERTEX
  8
C7
  10
367.917600
  20
395.899400
  0
VERTEX
  8
C7
  10
368.569900
  20
396.560900
  0
VERTEX
  8
C7
  10
369.233900
  20
397.209700
  0
VERTEX
  8
C7
  10
369.909200
  20
397.845500
  0
VERTEX
  8
C7
  10
370.595600
  20
398.467900
  0
VERTEX
  8
C7
  10
371.292600
  20
399.076600
  0
VERTEX
  8
C7
  10
372.000000
  20
399.671300
  0
SEQEND
  8
C7
  0
POLYLINE
  8
C7
  66
1
  10
372.000000
  20
399.671200
  0
VERTEX
  8
C7
  10
372.000000
  20
399.671200
  0
VERTEX
  8
C7
  10
372.726600
  20
400.233400
  0
VERTEX
  8
C7
  10
373.495200
  20
400.761900
  0
VERTEX
  8
C7
  10
374.300500
  20
401.260900
  0
VERTEX
  8
C7
  10
375.137000
  20
401.734500
  0
VERTEX
  8
C7
  10
375.999500
  20
402.187100
  0
VERTEX
  8
C7
  10
376.882600
  20
402.622700
  0
VERTEX
  8
C7
  10
377.781200
  20
403.045700
  0
VERTEX
  8
C7
  10
378.689800
  20
403.460200
  0
VERTEX
  8
C7
  10
379.603100
  20
403.870500
  0
VERTEX
  8
C7
  10
380.515900
  20
404.280700
  0
VERTEX
  8
C7
  10
381.422800
  20
404.695200
  0
VERTEX
  8
C7
  10
382.318500
  20
405.118100
  0
VERTEX
  8
C7
  10
383.197700
  20
405.553700
  0
VERTEX
  8
C7
  10
384.055100
  20
406.006100
  0
VERTEX
  8
C7
  10
384.885300
  20
406.479600
  0
VERTEX
  8
C7
  10
385.683200
  20
406.978500
  0
VERTEX
  8
C7
  10
386.443200
  20
407.506800
  0
VERTEX
  8
C7
  10
387.160300
  20
408.068900
  0
VERTEX
  8
C7
  10
387.828900
  20
408.669000
  0
VERTEX
  8
C7
  10
388.443900
  20
409.311300
  0
VERTEX
  8
C7
  10
389.000000
  20
410.000000
  0
VERTEX
  8
C7
  10
147.000000
  20
409.000000
  0
SEQEND
  8
C7
  0
POLYLINE
  8
C7
  66
1
  10
250.000000
  20
275.000000
  0
VERTEX
  8
C7
  10
250.000000
  20
275.000000
  0
VERTEX
  8
C7
  10
242.000000
  20
223.000000
  0
VERTEX
  8
C7
  10
314.000000
  20
223.000000
  0
VERTEX
  8
C7
  10
313.555800
  20
223.907800
  0
VERTEX
  8
C7
  10
313.142100
  20
224.813400
  0
VERTEX
  8
C7
  10
312.758300
  20
225.716600
  0
VERTEX
  8
C7
  10
312.404200
  20
226.617200
  0
VERTEX
  8
C7
  10
312.079400
  20
227.515100
  0
VERTEX
  8
C7
  10
311.783600
  20
228.409900
  0
VERTEX
  8
C7
  10
311.516500
  20
229.301700
  0
VERTEX
  8
C7
  10
311.277600
  20
230.190200
  0
VERTEX
  8
C7
  10
311.066700
  20
231.075300
  0
VERTEX
  8
C7
  10
310.883400
  20
231.956700
  0
VERTEX
  8
C7
  10
310.727400
  20
232.834300
  0
VERTEX
  8
C7
  10
310.598300
  20
233.708000
  0
VERTEX
  8
C7
  10
310.495800
  20
234.577500
  0
VERTEX
  8
C7
  10
310.419600
  20
235.442800
  0
VERTEX
  8
C7
  10
310.369300
  20
236.303500
  0
VERTEX
  8
C7
  10
310.344500
  20
237.159600
  0
VERTEX
  8
C7
  10
310.345000
  20
238.010900
  0
VERTEX
  8
C7
  10
310.370400
  20
238.857200
  0
VERTEX
  8
C7
  10
310.420300
  20
239.698300
  0
VERTEX
  8
C7
  10
310.494500
  20
240.534100
  0
VERTEX
  8
C7
  10
310.592500
  20
241.364300
  0
VERTEX
  8
C7
  10
310.714000
  20
242.188900
  0
VERTEX
  8
C7
  10
310.858700
  20
243.007700
  0
VERTEX
  8
C7
  10
311.026300
  20
243.820400
  0
VERTEX
  8
C7
  10
311.216400
  20
244.627000
  0
VERTEX
  8
C7
  10
311.428600
  20
245.427200
  0
VERTEX
  8
C7
  10
311.662700
  20
246.220800
  0
VERTEX
  8
C7
  10
311.918200
  20
247.007800
  0
VERTEX
  8
C7
  10
312.194900
  20
247.787800
  0
VERTEX
  8
C7
  10
312.492300
  20
248.560900
  0
VERTEX
  8
C7
  10
312.810300
  20
249.326700
  0
VERTEX
  8
C7
  10
313.148300
  20
250.085100
  0
VERTEX
  8
C7
  10
313.506200
  20
250.835900
  0
VERTEX
  8
C7
  10
313.883400
  20
251.579100
  0
VERTEX
  8
C7
  10
314.279800
  20
252.314300
  0
VERTEX
  8
C7
  10
314.694900
  20
253.041500
  0
VERTEX
  8
C7
  10
315.128500
  20
253.760400
  0
VERTEX
  8
C7
  10
315.580100
  20
254.470900
  0
VERTEX
  8
C7
  10
316.049400
  20
255.172800
  0
VERTEX
  8
C7
  10
316.536200
  20
255.865900
  0
VERTEX
  8
C7
  10
317.040000
  20
256.550100
  0
VERTEX
  8
C7
  10
317.560500
  20
257.225300
  0
VERTEX
  8
C7
  10
318.097300
  20
257.891100
  0
VERTEX
  8
C7
  10
318.650200
  20
258.547500
  0
VERTEX
  8
C7
  10
319.218800
  20
259.194300
  0
VERTEX
  8
C7
  10
319.802700
  20
259.831300
  0
VERTEX
  8
C7
  10
320.401700
  20
260.458400
  0
VERTEX
  8
C7
  10
321.015300
  20
261.075300
  0
VERTEX
  8
C7
  10
321.643200
  20
261.681900
  0
VERTEX
  8
C7
  10
322.285100
  20
262.278100
  0
VERTEX
  8
C7
  10
322.940700
  20
262.863600
  0
VERTEX
  8
C7
  10
323.609500
  20
263.438300
  0
VERTEX
  8
C7
  10
324.291300
  20
264.002000
  0
VERTEX
  8
C7
  10
324.985800
  20
264.554600
  0
VERTEX
  8
C7
  10
325.692500
  20
265.095800
  0
VERTEX
  8
C7
  10
326.411200
  20
265.625600
  0
VERTEX
  8
C7
  10
327.141400
  20
266.143700
  0
VERTEX
  8
C7
  10
327.882900
  20
266.649900
  0
VERTEX
  8
C7
  10
328.635400
  20
267.144100
  0
VERTEX
  8
C7
  10
329.398400
  20
267.626200
  0
VERTEX
  8
C7
  10
330.171600
  20
268.095900
  0
VERTEX
  8
C7
  10
330.954700
  20
268.553000
  0
VERTEX
  8
C7
  10
331.747400
  20
268.997500
  0
VERTEX
  8
C7
  10
332.549300
  20
269.429100
  0
VERTEX
  8
C7
  10
333.360100
  20
269.847700
  0
VERTEX
  8
C7
  10
334.179400
  20
270.253100
  0
VERTEX
  8
C7
  10
335.006900
  20
270.645000
  0
VERTEX
  8
C7
  10
335.842200
  20
271.023500
  0
VERTEX
  8
C7
  10
336.685000
  20
271.388200
  0
VERTEX
  8
C7
  10
337.535100
  20
271.739000
  0
VERTEX
  8
C7
  10
338.391900
  20
272.075800
  0
VERTEX
  8
C7
  10
339.255200
  20
272.398300
  0
VERTEX
  8
C7
  10
340.124700
  20
272.706400
  0
VERTEX
  8
C7
  10
341.000000
  20
273.000000
  0
VERTEX
  8
C7
  10
311.000000
  20
275.000000
  0
VERTEX
  8
C7
  10
250.000000
  20
275.000000
  0
SEQEND
  8
0
  0
ENDSEC
  0
EOF
