<?xml version="1.0" encoding="UTF-8" standalone="no"?>
<!-- Created with Inkscape (http://www.inkscape.org/) -->

<svg
   width="1080"
   height="1080"
   viewBox="0 0 285.75 285.75"
   version="1.1"
   id="svg5"
   inkscape:version="1.2 (dc2aedaf03, 2022-05-15)"
   sodipodi:docname="Feynman Lock Logo.svg"
   inkscape:export-filename="Feynman Lock Logo 3.png"
   inkscape:export-xdpi="42.666668"
   inkscape:export-ydpi="42.666668"
   xmlns:inkscape="http://www.inkscape.org/namespaces/inkscape"
   xmlns:sodipodi="http://sodipodi.sourceforge.net/DTD/sodipodi-0.dtd"
   xmlns="http://www.w3.org/2000/svg"
   xmlns:svg="http://www.w3.org/2000/svg">
  <sodipodi:namedview
     id="namedview7"
     pagecolor="#000000"
     bordercolor="#000000"
     borderopacity="0.25"
     inkscape:showpageshadow="2"
     inkscape:pageopacity="0"
     inkscape:pagecheckerboard="0"
     inkscape:deskcolor="#d1d1d1"
     inkscape:document-units="mm"
     showgrid="false"
     inkscape:zoom="0.5946522"
     inkscape:cx="459.09189"
     inkscape:cy="430.50375"
     inkscape:window-width="1920"
     inkscape:window-height="1166"
     inkscape:window-x="-11"
     inkscape:window-y="-11"
     inkscape:window-maximized="1"
     inkscape:current-layer="layer1" />
  <defs
     id="defs2" />
  <g
     inkscape:label="Layer 1"
     inkscape:groupmode="layer"
     id="layer1">
    <path
       id="path183"
       style="color:#000000;fill:#ffffff;stroke-linecap:round;stroke-linejoin:round;stroke-miterlimit:4.1;paint-order:fill markers stroke;fill-opacity:1"
       d="M 63.452458 238.72703 C 63.714997 238.43681 63.982037 238.16491 64.243107 237.8692 C 64.710292 237.34004 65.174934 236.80225 65.63682 236.25535 C 66.098707 235.70844 66.557657 235.15263 67.013481 234.58775 C 67.469304 234.02287 67.922023 233.44899 68.371021 232.86589 C 68.820018 232.28279 69.265449 231.69029 69.706856 231.08874 C 70.148264 230.48718 70.585867 229.87654 71.018921 229.25629 C 71.451975 228.63604 71.880178 228.00618 72.304114 227.367 C 72.72805 226.72782 73.147347 226.07922 73.561401 225.42087 C 73.975456 224.76251 74.384274 224.09411 74.787683 223.41634 C 74.881089 223.25941 74.971342 223.09683 75.064152 222.93885 C 53.882967 204.17939 40.552563 176.76737 40.552563 146.16214 C 40.552563 109.20807 59.983909 76.906652 89.210059 58.877026 C 88.712017 58.309347 88.209034 57.74501 87.685087 57.194958 C 87.042264 56.520109 86.381389 55.858432 85.705363 55.210583 C 85.029336 54.562735 84.33857 53.928708 83.635722 53.308374 C 82.932874 52.68804 82.218056 52.081152 81.494767 51.488847 C 80.771479 50.896541 80.039484 50.318349 79.302136 49.754586 C 78.564789 49.190822 77.821974 48.64185 77.076949 48.107141 C 76.331924 47.572433 75.584648 47.05217 74.838326 46.54703 C 74.428416 46.269586 74.020854 46.007731 73.612044 45.739327 C 41.790343 67.811471 20.90415 104.59442 20.90415 146.16214 C 20.90415 183.12606 37.41864 216.30885 63.452458 238.72703 z " />
    <path
       id="path1352"
       style="color:#000000;fill:#ffffff;stroke-linecap:round;stroke-linejoin:round;stroke-miterlimit:4.1;paint-order:fill markers stroke;fill-opacity:1"
       d="M 224.82297 55.521676 C 224.75293 55.607878 224.66871 55.691941 224.60128 55.778507 C 224.43103 55.997075 224.26917 56.217051 224.11604 56.437899 C 223.9629 56.658747 223.81832 56.880413 223.68299 57.103491 C 223.54766 57.32657 223.42157 57.55106 223.30472 57.776318 C 223.18787 58.001577 223.08046 58.227959 222.98277 58.455347 C 222.88508 58.682734 222.79707 58.911109 222.71922 59.140576 C 222.64137 59.370043 222.57398 59.600512 222.51665 59.832007 C 222.402 60.294997 222.29699 60.75394 222.20194 61.209184 C 222.10689 61.664428 222.02159 62.116042 221.94511 62.563106 C 221.86863 63.01017 221.80097 63.452741 221.74202 63.891191 C 221.68307 64.329641 221.63305 64.763518 221.59061 65.19292 C 221.50572 66.051725 221.45239 66.892133 221.42731 67.712146 C 221.40223 68.532159 221.40499 69.332181 221.43145 70.109932 C 221.4579 70.887683 221.50796 71.643407 221.57769 72.375427 C 221.64742 73.107447 221.73703 73.815475 221.84176 74.498295 C 221.94648 75.181115 222.06635 75.838567 222.19781 76.468717 C 222.32927 77.098867 222.47214 77.701831 222.62207 78.275842 C 222.772 78.849853 222.9291 79.394932 223.08923 79.909334 C 223.24935 80.423737 223.41241 80.907534 223.57447 81.358858 C 223.73652 81.810183 223.89779 82.229302 224.05351 82.614079 C 224.20922 82.998856 224.3594 83.349383 224.50051 83.664144 C 224.60393 83.894833 224.66562 84.001845 224.75734 84.193311 C 237.80388 101.38926 245.54108 122.84891 245.54108 146.16214 C 245.54108 202.8843 199.76926 248.65614 143.04708 248.65614 C 137.3625 248.65614 131.79034 248.18919 126.36076 247.3048 L 123.00903 266.65091 C 129.53128 267.73234 136.22336 268.30455 143.04708 268.30455 C 210.38797 268.30455 265.1895 213.50301 265.1895 146.16214 C 265.1895 110.2418 249.59388 77.892348 224.82297 55.521676 z " />
    <path
       id="path1348"
       style="color:#000000;fill:#ffffff;stroke-linecap:round;stroke-linejoin:round;stroke-miterlimit:4.1;paint-order:fill markers stroke;fill-opacity:1"
       d="M 143.04708 24.019722 C 125.30173 24.019722 108.42899 27.828564 93.198446 34.666101 L 192.43735 34.465597 C 177.32643 27.756327 160.61529 24.019722 143.04708 24.019722 z " />
    <path
       style="color:#000000;fill:#000000;stroke-linecap:round;stroke-linejoin:round;stroke-miterlimit:4.1;paint-order:fill markers stroke"
       d="m 470.24266,48.380727 c -67.34094,0 -122.14257,54.801633 -122.14257,122.142583 0,67.34094 54.80163,122.14258 122.14257,122.14258 67.34095,0 122.14258,-54.80164 122.14258,-122.14258 0,-67.34095 -54.80163,-122.142583 -122.14258,-122.142583 z m 0,19.648438 c 56.72223,0 102.49415,45.771915 102.49415,102.494145 0,56.72222 -45.77192,102.49414 -102.49415,102.49414 -56.72222,0 -102.49414,-45.77192 -102.49414,-102.49414 0,-56.72223 45.77192,-102.494145 102.49414,-102.494145 z"
       id="path183-08" />
    <path
       style="fill:#00ff00;stroke:none;stroke-width:0.264583;stroke-linecap:round;stroke-linejoin:round;stroke-miterlimit:4.1;paint-order:fill markers stroke"
       d="m 599.77261,58.664483 -219.91497,0.444938 c 0,0 49.97898,19.213717 45.38435,49.229049 -4.59463,30.01534 -24.67097,40.55171 -24.67097,40.55171 0,0 25.21313,1.9739 14.06594,64.35097 -11.1472,62.37706 -66.77822,77.89889 -66.77822,77.89889 l 102.28552,0.22247 31.36814,-181.05953 71.16304,-0.33371 c 0,0 -6.63214,-10.960508 -2.96323,-25.77622 3.66892,-14.815712 50.0604,-25.528567 50.0604,-25.528567 z"
       id="path288-8-9"
       sodipodi:nodetypes="cczczcccczc" />
    <path
       style="color:#000000;fill:#000000;stroke-linecap:round;stroke-linejoin:round;stroke-miterlimit:4.1;paint-order:fill markers stroke"
       d="m 307.8177,359.22395 c -67.34093,0 -122.14257,54.80163 -122.14257,122.14258 0,67.34094 54.80164,122.14258 122.14257,122.14258 67.34095,0 122.14258,-54.80164 122.14258,-122.14258 0,-67.34095 -54.80163,-122.14258 -122.14258,-122.14258 z m 0,19.64844 c 56.72223,0 102.49415,45.77191 102.49415,102.49414 0,56.72222 -45.77192,102.49414 -102.49415,102.49414 -56.72222,0 -102.49413,-45.77192 -102.49413,-102.49414 0,-56.72223 45.77191,-102.49415 102.49413,-102.49414 z"
       id="path183-7" />
    <path
       style="fill:#00ff00;stroke:none;stroke-width:0.264583;stroke-linecap:round;stroke-linejoin:round;stroke-miterlimit:4.1;paint-order:fill markers stroke"
       d="m 420.94348,369.5077 -195.5733,0.44494 c 0,0 42.04148,19.21372 37.44685,49.22905 -4.59463,30.01534 -24.67096,40.55171 -24.67096,40.55171 0,0 25.21313,1.9739 14.06593,64.35097 -11.14719,62.37706 -66.77821,77.89889 -66.77821,77.89889 l 102.28551,0.22247 31.36814,-181.05953 68.51721,-0.33371 c 0,0 -3.98631,-10.96051 -0.3174,-25.77622 3.66892,-14.81571 33.65623,-25.52857 33.65623,-25.52857 z"
       id="path288-8-5"
       sodipodi:nodetypes="cczczcccczc" />
    <circle
       style="fill:none;stroke:#000000;stroke-width:19.6483;stroke-linecap:round;stroke-linejoin:round;stroke-miterlimit:4.1;stroke-dasharray:none;paint-order:fill markers stroke"
       id="path183-0"
       cx="-47.163429"
       cy="453.83673"
       r="112.31823" />
    <path
       style="fill:#00ff00;stroke:none;stroke-width:0.264583;stroke-linecap:round;stroke-linejoin:round;stroke-miterlimit:4.1;paint-order:fill markers stroke"
       d="m 65.961675,341.97789 -195.573295,0.44494 c 0,0 42.041475,19.21372 37.446845,49.22905 -4.59463,30.01533 -24.670955,40.5517 -24.670955,40.5517 0,0 27.329795,1.9739 16.1826,64.35098 -11.1472,62.37706 -62.54488,75.78222 -62.54488,75.78222 l 95.935515,0.22247 31.36814,-178.94287 68.51721,-0.3337 c 0,0 -3.98631,-10.96051 -0.3174,-25.77622 3.66892,-14.81571 33.65623,-25.52857 33.65622,-25.52857 z"
       id="path288-8-0"
       sodipodi:nodetypes="cczczcccczc" />
    <path
       style="fill:#ff0000;stroke:none;stroke-width:0.264583;stroke-linecap:round;stroke-linejoin:round;stroke-miterlimit:4.1;paint-order:fill markers stroke"
       d="M 231.36774,42.269106 87.652776,42.714044 c 0,0 29.341484,11.805384 24.746854,41.82072 -4.59463,30.015336 -23.083465,40.551706 -23.083465,40.551706 0,0 18.863135,1.9739 7.715936,64.35096 -11.147197,62.37706 -47.199052,69.96139 -47.199052,69.96139 l 62.068851,0.22247 31.36813,-182.647025 70.63388,-0.333704 c 0,0 -5.57381,-1.435509 -1.9049,-16.251221 3.66892,-14.815712 19.36873,-18.120234 19.36873,-18.120234 z"
       id="path288"
       sodipodi:nodetypes="cczczcccczc" />
    <path
       style="fill:#ff0000;stroke:none;stroke-width:0.264583;stroke-linecap:round;stroke-linejoin:round;stroke-miterlimit:4.1;paint-order:fill markers stroke"
       d="m 149.38792,122.46917 -4.73701,30.15245 41.96239,-0.24155 c 0,0 -4.57094,0.0781 -1.85251,-13.04172 2.71842,-13.11984 17.68597,-16.53548 17.68597,-16.53548 z"
       id="path290"
       sodipodi:nodetypes="ccczcc" />
    <circle
       style="fill:none;stroke:#000000;stroke-width:19.6483;stroke-linecap:round;stroke-linejoin:round;stroke-miterlimit:4.1;stroke-dasharray:none;paint-order:fill markers stroke"
       id="path183-2"
       cx="-230.47786"
       cy="239.37662"
       r="112.31823" />
    <path
       style="fill:#00ff00;stroke:none;stroke-width:0.264583;stroke-linecap:round;stroke-linejoin:round;stroke-miterlimit:4.1;paint-order:fill markers stroke"
       d="m -121.05693,130.6928 -179.16913,0.44494 c 0,0 29.34148,16.03871 24.74685,46.05405 -4.59463,30.01533 -24.67097,40.5517 -24.67097,40.5517 0,0 27.3298,1.9739 16.18261,64.35097 -11.1472,62.37706 -62.54489,75.78222 -62.54489,75.78222 l 95.93552,0.22247 31.36814,-182.11786 68.51721,-0.3337 c 0,0 -7.69048,-7.78551 -4.02157,-22.60122 3.66892,-14.81572 33.65623,-22.35357 33.65623,-22.35357 z"
       id="path288-8-8"
       sodipodi:nodetypes="cczczcccczc" />
  </g>
</svg>
