  0
SECTION
  2
HEADER
  9
$ACADVER
  1
AC1006
  9
$EXTMIN
 10
0.000000
 20
0.000000
 30
0.000000
  9
$EXTMAX
 10
1080.000000
 20
1080.000000
 30
0.000000
  0
ENDSEC
  0
SECTION
  2
ENTITIES
  0
POLYLINE
  8
0
 66
1
 70
1
  0
VERTEX
  8
0
 10
569.778619
 20
919.881678
 42
0.000114
  0
VERTEX
  8
0
 10
482.413998
 20
919.559320
 42
0.000183
  0
VERTEX
  8
0
 10
407.822241
 20
919.239770
 42
0.000030
  0
VERTEX
  8
0
 10
341.767152
 20
918.928621
 42
0.010747
  0
VERTEX
  8
0
 10
336.812463
 20
918.798460
 42
0.000000
  0
VERTEX
  8
0
 10
330.567688
 20
918.500000
 42
0.000000
  0
VERTEX
  8
0
 10
338.177713
 20
914.747827
 42
-0.035369
  0
VERTEX
  8
0
 10
356.753682
 20
903.894121
 42
-0.029325
  0
VERTEX
  8
0
 10
374.877125
 20
889.882726
 42
-0.029560
  0
VERTEX
  8
0
 10
391.067358
 20
873.998358
 42
-0.038055
  0
VERTEX
  8
0
 10
403.839889
 20
857.532917
 42
-0.049308
  0
VERTEX
  8
0
 10
416.506227
 20
833.505930
 42
-0.053132
  0
VERTEX
  8
0
 10
423.837534
 20
808.053323
 42
-0.050882
  0
VERTEX
  8
0
 10
425.828762
 20
780.676440
 42
-0.039336
  0
VERTEX
  8
0
 10
422.611308
 20
750.918362
 42
-0.027377
  0
VERTEX
  8
0
 10
415.235070
 20
720.916079
 42
-0.028856
  0
VERTEX
  8
0
 10
404.725647
 20
692.436259
 42
-0.029938
  0
VERTEX
  8
0
 10
391.460962
 20
666.391742
 42
-0.035655
  0
VERTEX
  8
0
 10
375.845713
 20
643.674618
 42
-0.018930
  0
VERTEX
  8
0
 10
369.287202
 20
636.064896
 42
-0.010471
  0
VERTEX
  8
0
 10
360.744210
 20
627.257045
 42
-0.010450
  0
VERTEX
  8
0
 10
351.996282
 20
618.962161
 42
-0.022564
  0
VERTEX
  8
0
 10
344.859403
 20
613.038140
 42
0.000000
  0
VERTEX
  8
0
 10
337.218805
 20
607.257626
 42
0.000000
  0
VERTEX
  8
0
 10
342.359403
 20
604.951163
 42
-0.096897
  0
VERTEX
  8
0
 10
352.149369
 20
598.036486
 42
-0.056310
  0
VERTEX
  8
0
 10
360.890563
 20
586.541865
 42
-0.046888
  0
VERTEX
  8
0
 10
368.267476
 20
571.031721
 42
-0.030494
  0
VERTEX
  8
0
 10
373.931776
 20
552.000000
 42
-0.038036
  0
VERTEX
  8
0
 10
377.819130
 20
526.668399
 42
-0.018080
  0
VERTEX
  8
0
 10
379.142166
 20
493.676089
 42
-0.016807
  0
VERTEX
  8
0
 10
378.041906
 20
456.623611
 42
-0.015249
  0
VERTEX
  8
0
 10
374.455698
 20
418.500000
 42
-0.020197
  0
VERTEX
  8
0
 10
361.867213
 20
342.748702
 42
-0.031748
  0
VERTEX
  8
0
 10
344.369600
 20
279.164257
 42
-0.036110
  0
VERTEX
  8
0
 10
321.132229
 20
224.840487
 42
-0.041751
  0
VERTEX
  8
0
 10
291.245074
 20
177.153492
 42
-0.018508
  0
VERTEX
  8
0
 10
282.589679
 20
166.456953
 42
-0.010664
  0
VERTEX
  8
0
 10
271.432414
 20
154.204538
 42
-0.010661
  0
VERTEX
  8
0
 10
259.988839
 20
142.666731
 42
-0.022357
  0
VERTEX
  8
0
 10
250.520799
 20
134.304269
 42
-0.019636
  0
VERTEX
  8
0
 10
236.825697
 20
124.118304
 42
-0.018885
  0
VERTEX
  8
0
 10
222.198150
 20
114.897204
 42
-0.019697
  0
VERTEX
  8
0
 10
207.719049
 20
107.261163
 42
-0.029615
  0
VERTEX
  8
0
 10
194.500000
 20
101.878140
 42
0.000000
  0
VERTEX
  8
0
 10
187.500000
 20
99.500000
 42
0.000000
  0
VERTEX
  8
0
 10
304.991945
 20
98.791945
 42
0.000567
  0
VERTEX
  8
0
 10
350.085492
 20
98.571367
 42
0.000939
  0
VERTEX
  8
0
 10
388.147886
 20
98.499872
 42
0.000047
  0
VERTEX
  8
0
 10
422.461723
 20
98.503066
 42
0.219640
  0
VERTEX
  8
0
 10
423.087311
 20
98.791945
 42
0.134445
  0
VERTEX
  8
0
 10
423.400420
 20
99.459633
 42
0.000004
  0
VERTEX
  8
0
 10
440.766096
 20
199.901384
 42
0.000213
  0
VERTEX
  8
0
 10
459.859221
 20
310.620107
 42
0.000128
  0
VERTEX
  8
0
 10
482.423052
 20
442.000000
 42
-0.000038
  0
VERTEX
  8
0
 10
504.980742
 20
573.485356
 42
-0.000064
  0
VERTEX
  8
0
 10
524.058652
 20
684.551563
 42
-0.000003
  0
VERTEX
  8
0
 10
541.309168
 20
784.899555
 42
-0.015350
  0
VERTEX
  8
0
 10
541.686093
 20
786.750000
 42
0.000000
  0
VERTEX
  8
0
 10
542.216816
 20
789.000000
 42
0.000000
  0
VERTEX
  8
0
 10
621.443821
 20
789.000000
 42
0.000676
  0
VERTEX
  8
0
 10
655.722555
 20
789.046361
 42
0.000516
  0
VERTEX
  8
0
 10
693.235303
 20
789.186570
 42
0.000522
  0
VERTEX
  8
0
 10
728.376252
 20
789.390886
 42
0.001230
  0
VERTEX
  8
0
 10
754.585413
 20
789.635133
 42
0.000000
  0
VERTEX
  8
0
 10
808.500000
 20
790.270265
 42
0.000000
  0
VERTEX
  8
0
 10
804.472645
 20
794.420327
 42
-0.051742
  0
VERTEX
  8
0
 10
801.445787
 20
798.264509
 42
-0.056729
  0
VERTEX
  8
0
 10
799.381337
 20
802.535246
 42
-0.046297
  0
VERTEX
  8
0
 10
798.055200
 20
807.852600
 42
-0.021038
  0
VERTEX
  8
0
 10
797.268728
 20
814.985514
 42
-0.042635
  0
VERTEX
  8
0
 10
797.468864
 20
826.440204
 42
-0.020680
  0
VERTEX
  8
0
 10
799.572884
 20
840.946032
 42
-0.020689
  0
VERTEX
  8
0
 10
802.895010
 20
855.343974
 42
-0.039410
  0
VERTEX
  8
0
 10
806.932353
 20
866.511081
 42
-0.061256
  0
VERTEX
  8
0
 10
816.964599
 20
882.945772
 42
-0.050295
  0
VERTEX
  8
0
 10
831.303647
 20
897.706214
 42
-0.049176
  0
VERTEX
  8
0
 10
848.672549
 20
909.617000
 42
-0.052355
  0
VERTEX
  8
0
 10
867.680487
 20
917.613421
 42
0.007633
  0
VERTEX
  8
0
 10
869.978527
 20
918.346669
 42
0.009774
  0
VERTEX
  8
0
 10
872.069581
 20
919.095014
 42
0.007921
  0
VERTEX
  8
0
 10
873.789698
 20
919.780190
 42
0.078481
  0
VERTEX
  8
0
 10
874.450000
 20
920.186433
 42
0.689230
  0
VERTEX
  8
0
 10
874.331931
 20
920.515684
 42
0.000690
  0
VERTEX
  8
0
 10
863.532500
 20
920.712022
 42
0.003332
  0
VERTEX
  8
0
 10
851.012765
 20
920.838912
 42
0.001925
  0
VERTEX
  8
0
 10
835.950000
 20
920.833218
 42
-0.000151
  0
VERTEX
  8
0
 10
810.228689
 20
920.732265
 42
-0.000012
  0
VERTEX
  8
0
 10
741.489032
 20
920.484905
 42
-0.000016
  0
VERTEX
  8
0
 10
659.490530
 20
920.194407
 42
-0.000012
  0
SEQEND
  0
POLYLINE
  8
0
 66
1
 70
1
  0
VERTEX
  8
0
 10
563.999969
 20
616.940230
 42
-0.038938
  0
VERTEX
  8
0
 10
563.883854
 20
615.450410
 42
-0.000015
  0
VERTEX
  8
0
 10
555.430427
 20
561.578468
 42
-0.000034
  0
VERTEX
  8
0
 10
547.113692
 20
508.611276
 42
-0.016627
  0
VERTEX
  8
0
 10
546.470513
 20
505.250000
 42
0.000000
  0
VERTEX
  8
0
 10
545.961896
 20
503.000000
 42
0.000000
  0
VERTEX
  8
0
 10
615.730948
 20
503.005174
 42
0.000866
  0
VERTEX
  8
0
 10
643.175108
 20
503.054768
 42
0.001183
  0
VERTEX
  8
0
 10
667.904890
 20
503.200818
 42
0.000770
  0
VERTEX
  8
0
 10
688.679985
 20
503.404643
 42
0.013693
  0
VERTEX
  8
0
 10
695.370805
 20
503.663932
 42
0.002792
  0
VERTEX
  8
0
 10
701.290269
 20
504.089096
 42
0.045528
  0
VERTEX
  8
0
 10
703.251533
 20
504.422286
 42
0.490869
  0
VERTEX
  8
0
 10
703.465652
 20
504.930296
 42
0.144603
  0
VERTEX
  8
0
 10
702.752280
 20
505.621809
 42
-0.113621
  0
VERTEX
  8
0
 10
699.959212
 20
508.017178
 42
-0.076199
  0
VERTEX
  8
0
 10
697.995491
 20
511.756894
 42
-0.053065
  0
VERTEX
  8
0
 10
696.755931
 20
517.163081
 42
-0.021224
  0
VERTEX
  8
0
 10
696.171561
 20
524.745531
 42
-0.031948
  0
VERTEX
  8
0
 10
696.572087
 20
538.365311
 42
-0.030925
  0
VERTEX
  8
0
 10
698.700049
 20
551.974723
 42
-0.032404
  0
VERTEX
  8
0
 10
702.314522
 20
564.463554
 42
-0.048815
  0
VERTEX
  8
0
 10
707.179214
 20
574.688976
 42
-0.031658
  0
VERTEX
  8
0
 10
711.147672
 20
580.429071
 42
-0.019294
  0
VERTEX
  8
0
 10
716.502310
 20
586.699538
 42
-0.019064
  0
VERTEX
  8
0
 10
722.460309
 20
592.680351
 42
-0.026124
  0
VERTEX
  8
0
 10
728.285094
 20
597.556216
 42
-0.027165
  0
VERTEX
  8
0
 10
734.579637
 20
601.774399
 42
-0.014283
  0
VERTEX
  8
0
 10
742.812869
 20
606.352947
 42
-0.014237
  0
VERTEX
  8
0
 10
751.440551
 20
610.525745
 42
-0.023245
  0
VERTEX
  8
0
 10
759.000000
 20
613.505976
 42
0.000000
  0
VERTEX
  8
0
 10
765.500000
 20
615.725475
 42
0.000000
  0
VERTEX
  8
0
 10
744.000000
 20
616.365409
 42
0.005945
  0
VERTEX
  8
0
 10
712.945827
 20
616.920259
 42
0.000695
  0
VERTEX
  8
0
 10
643.610594
 20
617.238108
 42
0.000024
  0
VERTEX
  8
0
 10
564.548191
 20
617.486787
 42
0.415137
  0
SEQEND
  0
ENDSEC
  0
EOF
