  0
SECTION
  2
HEADER
  9
$ACADVER
  1
AC1006
  9
$EXTMIN
 10
0.000000
 20
0.000000
 30
0.000000
  9
$EXTMAX
 10
438.000000
 20
343.000000
 30
0.000000
  0
ENDSEC
  0
SECTION
  2
ENTITIES
  0
POLYLINE
  8
0
 66
1
 70
1
  0
VERTEX
  8
0
 10
76.790879
 20
338.725903
 42
0.046077
  0
VERTEX
  8
0
 10
60.603531
 20
328.394266
 42
0.040855
  0
VERTEX
  8
0
 10
45.862878
 20
314.885254
 42
0.038925
  0
VERTEX
  8
0
 10
32.875396
 20
298.475070
 42
0.033928
  0
VERTEX
  8
0
 10
21.913750
 20
279.500000
 42
0.030524
  0
VERTEX
  8
0
 10
12.968100
 20
258.042625
 42
0.028725
  0
VERTEX
  8
0
 10
6.490894
 20
235.219565
 42
0.026744
  0
VERTEX
  8
0
 10
2.324132
 20
210.291441
 42
0.019987
  0
VERTEX
  8
0
 10
0.314766
 20
182.500000
 42
0.043611
  0
VERTEX
  8
0
 10
3.160493
 20
130.772683
 42
0.055269
  0
VERTEX
  8
0
 10
15.112806
 20
84.456928
 42
0.060438
  0
VERTEX
  8
0
 10
35.669503
 20
45.326129
 42
0.072193
  0
VERTEX
  8
0
 10
63.995863
 20
14.832780
 42
0.017900
  0
VERTEX
  8
0
 10
72.266484
 20
8.645439
 42
0.032237
  0
VERTEX
  8
0
 10
79.518545
 20
4.278167
 42
0.039732
  0
VERTEX
  8
0
 10
85.607932
 20
1.716737
 42
0.113504
  0
VERTEX
  8
0
 10
90.155049
 20
1.293971
 42
0.147137
  0
VERTEX
  8
0
 10
98.365281
 20
5.014825
 42
0.167062
  0
VERTEX
  8
0
 10
102.657679
 20
12.476263
 42
0.163539
  0
VERTEX
  8
0
 10
101.498482
 20
21.125362
 42
0.140907
  0
VERTEX
  8
0
 10
95.306902
 20
27.941662
 42
-0.012380
  0
VERTEX
  8
0
 10
88.279074
 20
32.527768
 42
-0.019632
  0
VERTEX
  8
0
 10
82.524016
 20
36.832302
 42
-0.019573
  0
VERTEX
  8
0
 10
77.112163
 20
41.584534
 42
-0.012210
  0
VERTEX
  8
0
 10
71.136019
 20
47.545786
 42
-0.048832
  0
VERTEX
  8
0
 10
55.449801
 20
67.564730
 42
-0.043983
  0
VERTEX
  8
0
 10
43.305616
 20
90.940235
 42
-0.041076
  0
VERTEX
  8
0
 10
34.784367
 20
117.621705
 42
-0.032578
  0
VERTEX
  8
0
 10
29.904658
 20
147.500000
 42
-0.022053
  0
VERTEX
  8
0
 10
29.173722
 20
161.367986
 42
-0.007991
  0
VERTEX
  8
0
 10
29.320043
 20
181.084529
 42
-0.007840
  0
VERTEX
  8
0
 10
30.083456
 20
200.608739
 42
-0.025410
  0
VERTEX
  8
0
 10
31.449456
 20
213.500000
 42
-0.040197
  0
VERTEX
  8
0
 10
39.790480
 20
248.073904
 42
-0.056534
  0
VERTEX
  8
0
 10
53.006223
 20
276.888137
 42
-0.063856
  0
VERTEX
  8
0
 10
70.764004
 20
299.278737
 42
-0.077212
  0
VERTEX
  8
0
 10
92.592243
 20
314.816853
 42
0.036070
  0
VERTEX
  8
0
 10
97.133493
 20
317.518160
 42
0.076191
  0
VERTEX
  8
0
 10
100.094113
 20
320.336669
 42
0.085565
  0
VERTEX
  8
0
 10
101.867712
 20
323.684529
 42
0.055997
  0
VERTEX
  8
0
 10
102.757175
 20
327.971304
 42
0.077588
  0
VERTEX
  8
0
 10
102.508545
 20
331.966245
 42
0.078374
  0
VERTEX
  8
0
 10
101.053252
 20
335.680274
 42
0.076236
  0
VERTEX
  8
0
 10
98.481020
 20
338.847799
 42
0.067850
  0
VERTEX
  8
0
 10
94.980067
 20
341.248446
 42
0.064763
  0
VERTEX
  8
0
 10
91.055983
 20
342.619932
 42
0.086387
  0
VERTEX
  8
0
 10
87.290055
 20
342.750065
 42
0.063763
  0
VERTEX
  8
0
 10
82.893705
 20
341.556227
 42
0.020871
  0
SEQEND
  0
POLYLINE
  8
0
 66
1
 70
1
  0
VERTEX
  8
0
 10
343.019933
 20
340.248446
 42
0.067597
  0
VERTEX
  8
0
 10
339.461974
 20
337.811348
 42
0.079290
  0
VERTEX
  8
0
 10
336.902881
 20
334.627195
 42
0.080548
  0
VERTEX
  8
0
 10
335.489155
 20
330.848328
 42
0.072663
  0
VERTEX
  8
0
 10
335.271248
 20
326.675508
 42
0.058046
  0
VERTEX
  8
0
 10
336.186731
 20
322.356211
 42
0.092467
  0
VERTEX
  8
0
 10
338.022160
 20
319.068980
 42
0.074246
  0
VERTEX
  8
0
 10
341.235103
 20
316.199810
 42
0.026426
  0
VERTEX
  8
0
 10
346.565984
 20
313.091542
 42
-0.056461
  0
VERTEX
  8
0
 10
362.606105
 20
302.401920
 42
-0.049883
  0
VERTEX
  8
0
 10
376.602922
 20
287.980896
 42
-0.046488
  0
VERTEX
  8
0
 10
388.296884
 20
270.049308
 42
-0.037366
  0
VERTEX
  8
0
 10
397.485583
 20
248.923813
 42
-0.019501
  0
VERTEX
  8
0
 10
402.395806
 20
232.855973
 42
-0.023835
  0
VERTEX
  8
0
 10
405.669721
 20
217.489866
 42
-0.021712
  0
VERTEX
  8
0
 10
407.667181
 20
200.761517
 42
-0.012403
  0
VERTEX
  8
0
 10
408.696905
 20
180.436843
 42
-0.020932
  0
VERTEX
  8
0
 10
408.228546
 20
151.245351
 42
-0.030606
  0
VERTEX
  8
0
 10
405.175239
 20
125.729040
 42
-0.033393
  0
VERTEX
  8
0
 10
399.334027
 20
102.567999
 42
-0.033852
  0
VERTEX
  8
0
 10
390.481728
 20
80.500000
 42
-0.033149
  0
VERTEX
  8
0
 10
381.606156
 20
64.833187
 42
-0.032959
  0
VERTEX
  8
0
 10
370.722463
 20
50.445046
 42
-0.034156
  0
VERTEX
  8
0
 10
358.496410
 20
38.130387
 42
-0.043613
  0
VERTEX
  8
0
 10
345.612857
 20
28.666527
 42
0.016948
  0
VERTEX
  8
0
 10
342.516103
 20
26.636419
 42
0.026262
  0
VERTEX
  8
0
 10
340.004507
 20
24.660138
 42
0.030871
  0
VERTEX
  8
0
 10
338.096956
 20
22.769621
 42
0.059041
  0
VERTEX
  8
0
 10
336.862857
 20
21.004700
 42
0.117816
  0
VERTEX
  8
0
 10
335.098141
 20
14.309482
 42
0.128647
  0
VERTEX
  8
0
 10
336.646444
 20
7.777060
 42
0.126503
  0
VERTEX
  8
0
 10
341.228037
 20
2.762227
 42
0.111841
  0
VERTEX
  8
0
 10
347.874976
 20
0.289944
 42
0.165530
  0
VERTEX
  8
0
 10
357.361861
 20
2.161257
 42
0.035169
  0
VERTEX
  8
0
 10
371.522931
 20
11.707561
 42
0.034549
  0
VERTEX
  8
0
 10
386.583230
 20
25.253959
 42
0.032809
  0
VERTEX
  8
0
 10
399.916950
 20
40.968979
 42
0.050886
  0
VERTEX
  8
0
 10
417.182249
 20
70.013317
 42
0.043050
  0
VERTEX
  8
0
 10
429.391045
 20
103.605791
 42
0.040266
  0
VERTEX
  8
0
 10
436.281123
 20
141.031512
 42
0.033458
  0
VERTEX
  8
0
 10
437.685234
 20
181.500000
 42
0.027413
  0
VERTEX
  8
0
 10
434.636294
 20
216.448939
 42
0.034908
  0
VERTEX
  8
0
 10
427.840976
 20
248.079384
 42
0.037979
  0
VERTEX
  8
0
 10
417.391643
 20
276.067106
 42
0.046966
  0
VERTEX
  8
0
 10
403.398190
 20
300.109047
 42
0.030892
  0
VERTEX
  8
0
 10
393.656211
 20
312.088831
 42
0.027880
  0
VERTEX
  8
0
 10
382.190138
 20
323.219299
 42
0.028856
  0
VERTEX
  8
0
 10
370.101664
 20
332.545309
 42
0.043456
  0
VERTEX
  8
0
 10
358.509904
 20
339.068180
 42
0.022956
  0
VERTEX
  8
0
 10
353.488549
 20
341.072557
 42
0.064549
  0
VERTEX
  8
0
 10
349.792183
 20
341.840983
 42
0.081311
  0
VERTEX
  8
0
 10
346.534418
 20
341.559409
 42
0.054328
  0
SEQEND
  0
POLYLINE
  8
0
 66
1
 70
1
  0
VERTEX
  8
0
 10
129.819596
 20
303.087920
 42
0.039723
  0
VERTEX
  8
0
 10
123.787396
 20
300.141941
 42
0.023272
  0
VERTEX
  8
0
 10
117.061397
 20
295.732933
 42
0.021987
  0
VERTEX
  8
0
 10
110.247876
 20
290.326619
 42
0.021887
  0
VERTEX
  8
0
 10
103.924665
 20
284.334991
 42
0.055104
  0
VERTEX
  8
0
 10
89.006709
 20
265.051893
 42
0.050668
  0
VERTEX
  8
0
 10
78.163801
 20
242.438523
 42
0.045908
  0
VERTEX
  8
0
 10
71.311578
 20
216.055507
 42
0.032236
  0
VERTEX
  8
0
 10
68.310381
 20
185.500000
 42
0.030593
  0
VERTEX
  8
0
 10
69.095359
 20
157.176981
 42
0.038310
  0
VERTEX
  8
0
 10
73.423022
 20
131.260223
 42
0.040870
  0
VERTEX
  8
0
 10
81.306944
 20
107.763923
 42
0.045086
  0
VERTEX
  8
0
 10
92.709978
 20
86.667700
 42
0.033348
  0
VERTEX
  8
0
 10
100.431115
 20
76.559800
 42
0.025439
  0
VERTEX
  8
0
 10
110.125140
 20
66.559700
 42
0.025941
  0
VERTEX
  8
0
 10
120.409416
 20
57.928969
 42
0.044859
  0
VERTEX
  8
0
 10
129.880370
 20
52.034981
 42
0.094294
  0
VERTEX
  8
0
 10
135.280562
 20
50.488085
 42
0.118808
  0
VERTEX
  8
0
 10
140.410337
 20
51.240082
 42
0.122110
  0
VERTEX
  8
0
 10
144.534692
 20
54.216249
 42
0.103265
  0
VERTEX
  8
0
 10
147.104955
 20
58.955972
 42
0.096515
  0
VERTEX
  8
0
 10
147.513933
 20
63.087726
 42
0.104027
  0
VERTEX
  8
0
 10
146.314091
 20
66.951716
 42
0.081546
  0
VERTEX
  8
0
 10
143.339809
 20
70.697302
 42
0.038341
  0
VERTEX
  8
0
 10
138.443143
 20
74.500000
 42
-0.012822
  0
VERTEX
  8
0
 10
131.866356
 20
79.089799
 42
-0.023957
  0
VERTEX
  8
0
 10
126.830723
 20
83.185712
 42
-0.025169
  0
VERTEX
  8
0
 10
122.374803
 20
87.603349
 42
-0.015939
  0
VERTEX
  8
0
 10
117.619305
 20
93.163980
 42
-0.036433
  0
VERTEX
  8
0
 10
109.834804
 20
104.474431
 42
-0.030367
  0
VERTEX
  8
0
 10
103.235037
 20
117.491065
 42
-0.029104
  0
VERTEX
  8
0
 10
98.004163
 20
131.805794
 42
-0.026958
  0
VERTEX
  8
0
 10
94.314069
 20
147.000000
 42
-0.035186
  0
VERTEX
  8
0
 10
92.852947
 20
159.760801
 42
-0.011036
  0
VERTEX
  8
0
 10
92.437464
 20
179.001636
 42
-0.011021
  0
VERTEX
  8
0
 10
92.870652
 20
198.231897
 42
-0.035507
  0
VERTEX
  8
0
 10
94.344850
 20
210.933433
 42
-0.016629
  0
VERTEX
  8
0
 10
96.367715
 20
219.988509
 42
-0.013185
  0
VERTEX
  8
0
 10
99.132983
 20
229.626413
 42
-0.013484
  0
VERTEX
  8
0
 10
102.232122
 20
238.593988
 42
-0.026555
  0
VERTEX
  8
0
 10
105.256770
 20
245.500000
 42
-0.032124
  0
VERTEX
  8
0
 10
111.497413
 20
256.147893
 42
-0.034093
  0
VERTEX
  8
0
 10
118.939321
 20
265.687064
 42
-0.036297
  0
VERTEX
  8
0
 10
127.052035
 20
273.515384
 42
-0.053138
  0
VERTEX
  8
0
 10
135.296262
 20
279.021292
 42
0.034112
  0
VERTEX
  8
0
 10
142.441749
 20
283.410528
 42
0.098919
  0
VERTEX
  8
0
 10
146.396592
 20
287.617140
 42
0.139471
  0
VERTEX
  8
0
 10
147.689265
 20
292.108996
 42
0.100041
  0
VERTEX
  8
0
 10
146.664490
 20
297.260563
 42
0.097653
  0
VERTEX
  8
0
 10
143.960134
 20
301.295515
 42
0.113632
  0
VERTEX
  8
0
 10
140.053535
 20
303.741210
 42
0.104707
  0
VERTEX
  8
0
 10
135.207908
 20
304.347146
 42
0.072791
  0
SEQEND
  0
POLYLINE
  8
0
 66
1
 70
1
  0
VERTEX
  8
0
 10
299.286408
 20
303.273478
 42
0.107161
  0
VERTEX
  8
0
 10
296.613794
 20
302.163594
 42
0.054220
  0
VERTEX
  8
0
 10
293.849074
 20
299.760909
 42
0.053450
  0
VERTEX
  8
0
 10
291.603114
 20
296.745693
 42
0.087213
  0
VERTEX
  8
0
 10
290.484360
 20
293.768326
 42
0.084681
  0
VERTEX
  8
0
 10
290.416861
 20
289.674682
 42
0.104329
  0
VERTEX
  8
0
 10
291.760590
 20
286.108845
 42
0.086673
  0
VERTEX
  8
0
 10
294.677163
 20
282.922340
 42
0.042636
  0
VERTEX
  8
0
 10
299.314019
 20
279.940678
 42
-0.065367
  0
VERTEX
  8
0
 10
314.872321
 20
268.908674
 42
-0.062980
  0
VERTEX
  8
0
 10
327.280133
 20
254.107519
 42
-0.056262
  0
VERTEX
  8
0
 10
336.655751
 20
235.158405
 42
-0.037294
  0
VERTEX
  8
0
 10
343.193729
 20
211.762852
 42
-0.034451
  0
VERTEX
  8
0
 10
344.971466
 20
198.066431
 42
-0.013161
  0
VERTEX
  8
0
 10
345.623202
 20
178.837037
 42
-0.013143
  0
VERTEX
  8
0
 10
345.263381
 20
159.622117
 42
-0.034975
  0
VERTEX
  8
0
 10
343.690880
 20
146.000000
 42
-0.042154
  0
VERTEX
  8
0
 10
337.123157
 20
122.186435
 42
-0.052152
  0
VERTEX
  8
0
 10
326.964143
 20
101.556163
 42
-0.055621
  0
VERTEX
  8
0
 10
313.415694
 20
84.556988
 42
-0.060468
  0
VERTEX
  8
0
 10
296.797654
 20
71.500000
 42
0.048524
  0
VERTEX
  8
0
 10
295.395757
 20
70.451530
 42
0.027438
  0
VERTEX
  8
0
 10
293.907081
 20
68.937064
 42
0.027158
  0
VERTEX
  8
0
 10
292.560790
 20
67.229503
 42
0.039823
  0
VERTEX
  8
0
 10
291.588155
 20
65.583623
 42
0.020511
  0
VERTEX
  8
0
 10
290.554334
 20
63.225156
 42
0.077396
  0
VERTEX
  8
0
 10
290.207145
 20
61.655004
 42
0.078996
  0
VERTEX
  8
0
 10
290.357407
 20
60.070200
 42
0.021919
  0
VERTEX
  8
0
 10
291.088155
 20
57.674213
 42
0.066852
  0
VERTEX
  8
0
 10
292.868422
 20
54.198516
 42
0.084092
  0
VERTEX
  8
0
 10
295.394739
 20
51.617343
 42
0.085664
  0
VERTEX
  8
0
 10
298.589956
 20
50.044456
 42
0.072408
  0
VERTEX
  8
0
 10
302.323330
 20
49.510861
 42
0.100640
  0
VERTEX
  8
0
 10
307.239271
 20
50.523786
 42
0.039944
  0
VERTEX
  8
0
 10
313.369808
 20
53.743948
 42
0.032422
  0
VERTEX
  8
0
 10
320.445396
 20
58.884705
 42
0.018341
  0
VERTEX
  8
0
 10
328.347553
 20
65.953937
 42
0.016273
  0
VERTEX
  8
0
 10
336.454391
 20
74.285058
 42
0.027372
  0
VERTEX
  8
0
 10
342.622376
 20
81.842939
 42
0.027136
  0
VERTEX
  8
0
 10
347.963512
 20
90.075968
 42
0.015662
  0
VERTEX
  8
0
 10
353.522393
 20
100.500000
 42
0.032896
  0
VERTEX
  8
0
 10
361.445819
 20
119.622217
 42
0.034241
  0
VERTEX
  8
0
 10
366.668507
 20
139.366207
 42
0.032260
  0
VERTEX
  8
0
 10
369.359701
 20
160.672374
 42
0.023656
  0
VERTEX
  8
0
 10
369.689619
 20
184.500000
 42
0.026514
  0
VERTEX
  8
0
 10
367.495560
 20
209.809487
 42
0.035159
  0
VERTEX
  8
0
 10
362.683038
 20
232.413086
 42
0.038142
  0
VERTEX
  8
0
 10
355.189482
 20
252.546267
 42
0.043102
  0
VERTEX
  8
0
 10
344.967155
 20
270.453414
 42
0.043932
  0
VERTEX
  8
0
 10
334.218507
 20
283.406186
 42
0.041851
  0
VERTEX
  8
0
 10
321.207471
 20
294.514336
 42
0.044095
  0
VERTEX
  8
0
 10
308.512216
 20
302.036136
 42
0.158007
  0
SEQEND
  0
POLYLINE
  8
0
 66
1
 70
1
  0
VERTEX
  8
0
 10
182.975837
 20
248.679685
 42
0.043654
  0
VERTEX
  8
0
 10
175.005141
 20
244.554546
 42
0.037588
  0
VERTEX
  8
0
 10
167.435781
 20
238.919138
 42
0.036261
  0
VERTEX
  8
0
 10
160.535151
 20
231.987989
 42
0.034174
  0
VERTEX
  8
0
 10
154.558124
 20
224.000000
 42
0.036696
  0
VERTEX
  8
0
 10
148.590850
 20
213.095171
 42
0.042874
  0
VERTEX
  8
0
 10
144.637814
 20
201.978395
 42
0.039623
  0
VERTEX
  8
0
 10
142.433550
 20
189.637256
 42
0.024938
  0
VERTEX
  8
0
 10
141.735187
 20
175.000000
 42
0.006428
  0
VERTEX
  8
0
 10
141.857443
 20
166.876264
 42
0.019594
  0
VERTEX
  8
0
 10
142.227256
 20
161.372222
 42
0.023805
  0
VERTEX
  8
0
 10
142.979618
 20
156.521363
 42
0.013804
  0
VERTEX
  8
0
 10
144.319242
 20
150.776171
 42
0.037628
  0
VERTEX
  8
0
 10
148.580434
 20
138.412593
 42
0.039017
  0
VERTEX
  8
0
 10
154.604970
 20
126.983846
 42
0.040121
  0
VERTEX
  8
0
 10
162.144378
 20
116.927425
 42
0.045370
  0
VERTEX
  8
0
 10
170.914633
 20
108.648234
 42
0.027663
  0
VERTEX
  8
0
 10
179.478990
 20
102.654620
 42
0.066647
  0
VERTEX
  8
0
 10
186.521778
 20
99.490870
 42
0.101610
  0
VERTEX
  8
0
 10
192.167145
 20
99.000859
 42
0.160929
  0
VERTEX
  8
0
 10
196.530814
 20
101.028949
 42
0.113092
  0
VERTEX
  8
0
 10
199.219966
 20
105.033297
 42
0.149221
  0
VERTEX
  8
0
 10
199.525340
 20
109.395039
 42
0.132341
  0
VERTEX
  8
0
 10
197.301663
 20
113.568912
 42
0.080778
  0
VERTEX
  8
0
 10
192.852587
 20
117.000000
 42
-0.077323
  0
VERTEX
  8
0
 10
177.603477
 20
128.593842
 42
-0.081438
  0
VERTEX
  8
0
 10
166.916230
 20
144.085906
 42
-0.076891
  0
VERTEX
  8
0
 10
161.326894
 20
162.961658
 42
-0.059503
  0
VERTEX
  8
0
 10
160.993185
 20
184.434274
 42
-0.047730
  0
VERTEX
  8
0
 10
164.131302
 20
200.018139
 42
-0.065998
  0
VERTEX
  8
0
 10
170.017135
 20
212.991864
 42
-0.071459
  0
VERTEX
  8
0
 10
178.637813
 20
223.218690
 42
-0.069872
  0
VERTEX
  8
0
 10
189.850347
 20
230.697215
 42
0.012284
  0
VERTEX
  8
0
 10
193.701031
 20
232.669094
 42
0.042780
  0
VERTEX
  8
0
 10
196.031059
 20
234.206812
 42
0.063862
  0
VERTEX
  8
0
 10
197.538150
 20
235.747434
 42
0.062849
  0
VERTEX
  8
0
 10
198.617285
 20
237.626461
 42
0.065135
  0
VERTEX
  8
0
 10
199.459183
 20
240.720231
 42
0.097266
  0
VERTEX
  8
0
 10
199.296302
 20
243.510169
 42
0.095139
  0
VERTEX
  8
0
 10
198.082798
 20
246.074865
 42
0.059982
  0
VERTEX
  8
0
 10
195.814127
 20
248.502948
 42
0.060151
  0
VERTEX
  8
0
 10
193.167568
 20
250.234431
 42
0.111819
  0
VERTEX
  8
0
 10
190.686575
 20
250.832321
 42
0.080606
  0
VERTEX
  8
0
 10
187.654762
 20
250.383097
 42
0.020593
  0
SEQEND
  0
POLYLINE
  8
0
 66
1
 70
1
  0
VERTEX
  8
0
 10
243.302554
 20
248.802956
 42
0.072186
  0
VERTEX
  8
0
 10
242.344941
 20
248.155946
 42
0.031516
  0
VERTEX
  8
0
 10
241.275456
 20
247.051832
 42
0.030367
  0
VERTEX
  8
0
 10
240.268420
 20
245.715371
 42
0.035506
  0
VERTEX
  8
0
 10
239.487568
 20
244.332560
 42
0.028053
  0
VERTEX
  8
0
 10
238.707028
 20
242.417229
 42
0.066040
  0
VERTEX
  8
0
 10
238.402513
 20
240.907210
 42
0.067002
  0
VERTEX
  8
0
 10
238.504301
 20
239.383408
 42
0.029576
  0
VERTEX
  8
0
 10
239.023579
 20
237.428555
 42
0.064182
  0
VERTEX
  8
0
 10
239.987821
 20
235.416842
 42
0.076595
  0
VERTEX
  8
0
 10
241.385825
 20
233.848515
 42
0.046199
  0
VERTEX
  8
0
 10
243.719600
 20
232.260343
 42
0.009831
  0
VERTEX
  8
0
 10
248.068515
 20
229.965552
 42
-0.074605
  0
VERTEX
  8
0
 10
260.823541
 20
220.959184
 42
-0.080876
  0
VERTEX
  8
0
 10
269.964438
 20
208.825778
 42
-0.073065
  0
VERTEX
  8
0
 10
275.407760
 20
193.358104
 42
-0.047736
  0
VERTEX
  8
0
 10
277.244860
 20
174.500000
 42
-0.031829
  0
VERTEX
  8
0
 10
276.472708
 20
162.046856
 42
-0.042558
  0
VERTEX
  8
0
 10
274.106614
 20
150.979846
 42
-0.045050
  0
VERTEX
  8
0
 10
270.046515
 20
140.981396
 42
-0.043264
  0
VERTEX
  8
0
 10
264.215153
 20
131.726457
 42
-0.039755
  0
VERTEX
  8
0
 10
260.530921
 20
127.594570
 42
-0.019737
  0
VERTEX
  8
0
 10
255.266922
 20
122.943372
 42
-0.019503
  0
VERTEX
  8
0
 10
249.782497
 20
118.815454
 42
-0.051383
  0
VERTEX
  8
0
 10
245.479698
 20
116.445093
 42
0.077851
  0
VERTEX
  8
0
 10
241.578009
 20
114.019332
 42
0.108531
  0
VERTEX
  8
0
 10
239.121315
 20
110.739995
 42
0.119151
  0
VERTEX
  8
0
 10
238.398589
 20
106.972956
 42
0.107819
  0
VERTEX
  8
0
 10
239.428974
 20
103.137348
 42
0.109907
  0
VERTEX
  8
0
 10
242.360948
 20
99.629306
 42
0.138610
  0
VERTEX
  8
0
 10
246.273610
 20
98.065577
 42
0.106524
  0
VERTEX
  8
0
 10
251.240313
 20
98.601567
 42
0.047988
  0
VERTEX
  8
0
 10
257.267884
 20
101.261923
 42
0.053679
  0
VERTEX
  8
0
 10
270.052012
 20
110.365632
 42
0.053398
  0
VERTEX
  8
0
 10
280.630416
 20
121.996666
 42
0.052053
  0
VERTEX
  8
0
 10
288.722543
 20
135.892587
 42
0.046428
  0
VERTEX
  8
0
 10
294.145885
 20
151.698651
 42
0.035185
  0
VERTEX
  8
0
 10
295.662060
 20
160.671058
 42
0.018622
  0
VERTEX
  8
0
 10
296.337030
 20
171.940625
 42
0.018566
  0
VERTEX
  8
0
 10
296.170372
 20
183.397851
 42
0.030772
  0
VERTEX
  8
0
 10
295.078754
 20
193.000000
 42
0.051609
  0
VERTEX
  8
0
 10
290.076407
 20
210.538004
 42
0.059628
  0
VERTEX
  8
0
 10
281.746923
 20
225.781703
 42
0.062116
  0
VERTEX
  8
0
 10
270.399862
 20
238.127298
 42
0.064450
  0
VERTEX
  8
0
 10
256.500000
 20
247.129612
 42
0.022938
  0
VERTEX
  8
0
 10
252.205681
 20
248.945909
 42
0.057099
  0
VERTEX
  8
0
 10
248.898181
 20
249.755991
 42
0.074665
  0
VERTEX
  8
0
 10
246.065067
 20
249.691004
 42
0.069633
  0
SEQEND
  0
ENDSEC
  0
EOF
